<?xml version="1.0" standalone="no"?>
<!DOCTYPE svg PUBLIC "-//W3C//DTD SVG 1.1//EN" "http://www.w3.org/Graphics/SVG/1.1/DTD/svg11.dtd" >
<svg xmlns="http://www.w3.org/2000/svg" xmlns:xlink="http://www.w3.org/1999/xlink" version="1.1">
<metadata>
Created by FontForge 20200314 at Wed Sep  9 19:25:14 2020
 By Sanjay Joshi
</metadata>
<defs>
<font id="stratos-icons" horiz-adv-x="512" >
  <font-face 
    font-family="stratos-icons"
    font-weight="400"
    font-stretch="normal"
    units-per-em="512"
    panose-1="2 0 5 3 0 0 0 0 0 0"
    ascent="448"
    descent="-64"
    bbox="-0.595506 -64.5 512 448"
    underline-thickness="25"
    underline-position="-50"
    unicode-range="U+005F-F188"
  />
<missing-glyph horiz-adv-x="187" 
d="M17 0v341h136v-341h-136zM34 17h102v307h-102v-307z" />
    <glyph glyph-name="abstract_incomplete" unicode="abstract_incomplete" horiz-adv-x="426" 
d="M420 213q6 -10 6 -22q0 -11 -5 -20l-86 -150q-12 -21 -37 -21h-170q-25 0 -37 21l-85 150q-6 10 -6 21t6 21l85 150q12 21 37 21h170q24 0 37 -21zM213 178v1q0 35 -25 60t-60 25q-33 0 -58 -22l58 99h170l3 -5q2 -2 3 -4l74 -130l4 -10l-55 -99q-14 -5 -29 -6
q-35 0 -59.5 24.5t-25.5 59.5v1v6z" />
    <glyph glyph-name="abstract_instance" unicode="abstract_instance" horiz-adv-x="426" 
d="M420 213q6 -10 6 -22q0 -11 -6 -20l-85 -150q-12 -21 -37 -21h-171q-24 0 -36 21l-85 150q-6 10 -6 21t6 21l85 150q12 21 36 21h171q24 0 36 -21zM212.5 149q17.5 0 30 12.5t12.5 30.5t-12.5 30.5t-30 12.5t-30 -12.5t-12.5 -30.5t12.5 -30.5t30 -12.5z" />
    <glyph glyph-name="abstract" unicode="abstract" horiz-adv-x="426" 
d="M298 384q25 0 37 -21l86 -150q5 -10 5 -21t-5 -21l-86 -150q-12 -21 -37 -21h-170q-25 0 -37 21l-85 150q-6 10 -6 21t6 21l85 150q12 21 37 21h170z" />
    <glyph glyph-name="action_chains" unicode="action_chains" horiz-adv-x="470" 
d="M342 21.5q0 26.5 18.5 45t45 18.5t45.5 -18.5t19 -45t-19 -45.5t-45.5 -19t-45 19t-18.5 45.5zM363 384q44 0 75 -31.5t31 -75.5t-31 -75t-75 -31h-68q-4 -13 -13 -22t-21 -14.5t-26 -5.5q-20 0 -36.5 11.5t-23.5 30.5h-68q-27 0 -45.5 -19t-18.5 -45.5t18.5 -45
t45.5 -18.5h128v64l85 -86l-85 -85v64h-128q-44 0 -75.5 31.5t-31.5 75.5t31.5 75t75.5 31h68q4 13 13 22.5t21 15t25.5 5.5t26 -5.5t21.5 -15t13 -22.5h68q26 0 45 19t19 45.5t-19 45t-45 18.5h-239q-6 -19 -22.5 -30.5t-37.5 -11.5q-26 0 -45 18.5t-19 45t19 45.5t45 19
q21 0 37.5 -12t22.5 -31h239z" />
    <glyph glyph-name="activate_subscriptions" unicode="activate_subscriptions" horiz-adv-x="427" 
d="M43 277v43h341v-43h-341zM85 363v42h256v-42h-256zM384 235q18 0 30.5 -12.5t12.5 -30.5v-171q0 -17 -12.5 -29.5t-30.5 -12.5h-341q-18 0 -30.5 12.5t-12.5 29.5v171q0 18 12.5 30.5t30.5 12.5h341zM277 85v43h-42v43h-43v-43h-43v-43h43v-42h43v42h42z" />
    <glyph glyph-name="admin" unicode="admin" horiz-adv-x="384" 
d="M192 427l192 -86v-128q0 -89 -55 -162.5t-137 -93.5q-82 20 -137 93.5t-55 162.5v128zM192 343q-26 0 -45 -18.5t-19 -45t19 -45.5t45 -19t45 19t19 45.5t-19 45t-45 18.5zM192 175q-23 0 -52 -7t-52.5 -23t-23.5 -36q21 -31 55 -50t73 -19t73 19t55 50q0 15 -14 28
t-34.5 21t-41.5 12.5t-38 4.5z" />
    <glyph glyph-name="api" unicode="api" horiz-adv-x="427" 
d="M240 203v21h43v-21h-43zM384 363q12 0 21.5 -6t15.5 -15.5t6 -21.5v-256q0 -18 -12.5 -30.5t-30.5 -12.5h-341q-18 0 -30.5 12.5t-12.5 30.5v256q0 18 12.5 30.5t30.5 12.5h341zM137 128h34l-47 128h-34l-47 -128h34l10 26h41zM315 203v21v1q0 13 -9 22t-22 9h-1h-75
v-128h32v43h43h1q13 0 22 9t9 22v1zM384 128v128h-32v-128h32zM95 176l12 33l12 -33h-24z" />
    <glyph glyph-name="application_incomplete" unicode="application_incomplete" horiz-adv-x="426" 
d="M420 213q6 -10 6 -22q0 -11 -5 -20l-86 -150q-12 -21 -37 -21h-170q-25 0 -37 21l-85 150q-6 10 -6 21t6 21l85 150q12 21 37 21h170q24 0 37 -21zM213 178v1q0 35 -25 60t-60 25q-33 0 -58 -22l58 99h170l3 -5q2 -2 3 -4l74 -130l4 -10l-55 -99q-14 -5 -29 -6
q-35 0 -59.5 24.5t-25.5 59.5v1v6z" />
    <glyph glyph-name="application_instance" unicode="application_instance" horiz-adv-x="426" 
d="M420 213q6 -10 6 -22q0 -11 -6 -20l-85 -150q-12 -21 -37 -21h-171q-24 0 -36 21l-85 150q-6 10 -6 21t6 21l85 150q12 21 36 21h171q24 0 36 -21zM212.5 149q17.5 0 30 12.5t12.5 30.5t-12.5 30.5t-30 12.5t-30 -12.5t-12.5 -30.5t12.5 -30.5t30 -12.5z" />
    <glyph glyph-name="application_window" unicode="application_window" horiz-adv-x="469" 
d="M43 277h384q17 0 29.5 -12.5t12.5 -29.5v-214q0 -17 -12.5 -29.5t-29.5 -12.5h-384q-18 0 -30.5 12.5t-12.5 29.5v214q0 17 12.5 29.5t30.5 12.5zM0 384q0 18 12.5 30.5t30.5 12.5h384q11 0 21 -6t15.5 -15.5t5.5 -21.5v-43h-469v43zM64 363q6 0 11 2.5t7.5 7.5t2.5 11
q0 9 -6 15t-15 6t-15 -6t-6 -15t6 -15t15 -6zM128 363q9 0 15 6t6 15t-6 15t-15 6t-15 -6t-6 -15t6 -15t15 -6zM0 235v85h469v-85h-469z" />
    <glyph glyph-name="application" unicode="application" horiz-adv-x="426" 
d="M298 384q25 0 37 -21l86 -150q5 -10 5 -21t-5 -21l-86 -150q-12 -21 -37 -21h-170q-25 0 -37 21l-85 150q-6 10 -6 21t6 21l85 150q12 21 37 21h170z" />
    <glyph glyph-name="autoinstallation" unicode="autoinstallation" horiz-adv-x="427" 
d="M179 96l67 -66q-27 -8 -54 -8q-79 0 -135.5 56t-56.5 135.5t56.5 136t135.5 56.5q77 0 132.5 -53t59.5 -129h-95v-128h-110zM139 213q0 -22 15.5 -37.5t37.5 -15.5t37.5 15.5t15.5 37.5t-15.5 38t-37.5 16t-37.5 -16t-15.5 -38zM427 64l-85 -85l-85 85h64v128h42v-128h64
z" />
    <glyph glyph-name="background_tasks" unicode="background_tasks" 
d="M128 352v32h192v-32h-192zM64 288v32h32v-32h-32zM64 352v32h32v-32h-32zM64 224v32h32v-32h-32zM96 192v-32h-53q-18 0 -30.5 12.5t-12.5 30.5v202q0 18 12.5 30.5t30.5 12.5h298q18 0 30.5 -12.5t12.5 -30.5v-85h-32v96h-320v-224h64zM469 288q18 0 30.5 -12.5
t12.5 -30.5v-202q0 -18 -12.5 -30.5t-30.5 -12.5h-117v-32h32v-32h-128v31h33v33h-118q-18 0 -30.5 12.5t-12.5 30.5v202q0 18 12.5 30.5t30.5 12.5h298zM480 32v224h-320v-224h320z" />
    <glyph glyph-name="bootstrapping" unicode="bootstrapping" horiz-adv-x="398" 
d="M7 -64v43h384v-43h-384zM199 192q52 0 91 -10.5t59.5 -27.5t32.5 -37.5t14 -41t1.5 -37.5t-3.5 -27l-3 -11h-384q-1 4 -3 11t-3.5 27t1.5 38t14.5 40t32 38t59.5 27t91 11zM7 448h384l-21 -278q-40 54 -171 54q-130 0 -171 -53zM92 384v-43h214v43h-214zM327 256v43h-256
v-43h256z" />
    <glyph glyph-name="caasp" unicode="caasp" horiz-adv-x="454" 
d="M426 339q12 -7 20 -21t8 -27v-198q0 -13 -8 -27t-20 -20l-172 -100q-11 -7 -27 -7t-27 7l-173 100q-11 6 -19 20t-8 27v199q0 13 8 26.5t19 20.5l173 99q11 7 27 7q15 0 27 -7z" />
    <glyph glyph-name="cleanup" unicode="cleanup" horiz-adv-x="427" 
d="M384 128v-43h-341v43h106q0 18 12.5 30.5t30.5 12.5l88 234l37 -13l-82 -221q17 0 29.5 -12.5t12.5 -30.5h107zM384 64l43 -85h-43h-341h-43l43 85h341z" />
    <glyph glyph-name="cloud_controller_manager" unicode="cloud_controller_manager" 
d="M192 235h170v-43h-170v43zM512 235v-43h-64v-43h-43v128h43v-42h64zM192 21h170v-42h-170v42zM512 21v-42h-64v-43h-43v128h43v-43h64zM512 85h-171v43h171v-43zM192 85v43h64v43h42v-128h-42v42h-64zM149 299v-192h-21q-53 0 -90.5 37.5t-37.5 90.5q0 49 33 85.5
t81 41.5q20 39 58 62.5t84 23.5q57 0 101.5 -36.5t55.5 -92.5q30 -2 55 -20h-319z" />
    <glyph glyph-name="cloud_foundry_space" unicode="cloud_foundry_space" horiz-adv-x="427" 
d="M213.5 405q88.5 0 151 -62.5t62.5 -150.5t-62.5 -150.5t-151 -62.5t-151 62.5t-62.5 150.5t62.5 150.5t151 62.5zM213.5 21q70.5 0 120.5 50t50 121t-50 121t-120.5 50t-120.5 -50t-50 -121t50 -121t120.5 -50zM182 288q0 13 9 22.5t22 9.5t22.5 -9.5t9.5 -22.5
q0 -8 -4 -15.5t-11.5 -12t-16 -4.5t-16 4.5t-11.5 12t-4 15.5zM182 96q0 13 9 22.5t22 9.5t22.5 -9.5t9.5 -22.5q0 -8 -4 -15.5t-11.5 -12t-16 -4.5t-16 4.5t-11.5 12t-4 15.5zM278 192q0 13 9 22.5t22 9.5t22.5 -9.5t9.5 -22.5t-9.5 -22.5t-22.5 -9.5t-22 9.5t-9 22.5z
M86 192q0 13 9 22.5t22 9.5t22.5 -9.5t9.5 -22.5t-9.5 -22.5t-22.5 -9.5t-22 9.5t-9 22.5zM192 192q0 9 6 15t15 6t15.5 -6t6.5 -15t-6.5 -15t-15.5 -6t-15 6t-6 15z" />
    <glyph glyph-name="cloud_foundry" unicode="cloud_foundry" horiz-adv-x="342" 
d="M226 240q-15 -12 -25.5 -34t-10.5 -47q-1 -44 3 -105q35 -5 35 -18q0 -8 -17 -15.5t-40 -7.5t-40 7.5t-17 15.5q0 13 35 18q4 61 3 105q-1 25 -11 47t-25 34q-25 21 -24 50q0 29 23 48.5t56 19.5q21 0 39.5 -9t29 -24.5t10.5 -34.5q1 -29 -24 -50zM322 18q4 2 9 3
q6 1 11 1v3t-2 7q-1 2 -1 3q-1 1 -1.5 2l-0.5 1l-1 3l-12 2l-10 4q-10 4 -14 8t-4 9l2 4q2 2 4 3q-1 1 -3 2l-1.5 0.5t-2.5 1.5q-1 0 -4 2q-6 3 -8 3l-4 2q-4 -1 -9 -1t-9 1q-11 1 -18 3q-4 1 -7 2t-6 3q-5 4 -5 6l-4 1q-3 0 -12 2v-1.5t-1 -0.5v-5q-2 -7 1.5 -12.5
t10.5 -7.5q35 -11 42 -29q7 -20 -19.5 -35t-71 -15t-71 15t-19.5 35q7 18 41 28q13 4 13 18q0 2 -1 4l-1 6q-6 -1 -8 -1t-10 -2h-4q0 -4 -4 -7q-2 -2 -5 -3q-4 -1 -7 -2q-4 -2 -9 -2q-4 -1 -9 -2h-19h-1h-1l-1 -1q-3 -1 -8 -4l-8 -4l-2 -1l-1 -1q6 -3 7 -7t-3 -9
q-3 -3 -6 -5l-8 -4q-10 -5 -21 -7q-1 -1 -1.5 -2.5t-2.5 -6.5l-1 -7v-2v-1q12 0 21 -3t14 -10q4 -7 1 -13q-3 -8 -12 -16l1 -1q1 0 3 -2q9 -6 10 -6q10 -6 11 -7q1 0 3 -1h1l2 -1q12 5 29 7h9h5q9 0 15 -1l12 -4q6 -3 11 -6q10 -8 14 -18h8q16 -1 19 0h18l9 1q1 5 4 10
q2 2 3 4q6 6 15 10q6 3 12 4q9 2 14 2q5 1 14 0q15 -1 30 -6l5 3q9 6 10 6q8 6 9 7l3 3q-9 7 -13 15q-2 4 -2 7v1q0 3 2 6q2 5 12 9v0zM119 143q-48 16 -77 56.5t-29 90.5q0 62 43.5 108t105.5 49h3h5h1h5h1h3q62 -3 105.5 -49t43.5 -108q0 -50 -29 -90.5t-77 -56.5v4.5
t1 12.5t3.5 18t9.5 21t16 21l2 2q25 29 25 69q0 44 -31.5 75.5t-76.5 31.5h-2q-29 0 -54 -14.5t-39.5 -39t-14.5 -53.5q0 -40 25 -70l2 -1q17 -19 24.5 -38.5t6.5 -29.5zM226 240q-15 -12 -25.5 -34t-10.5 -47q-1 -44 3 -105q35 -5 35 -18q0 -8 -17 -15.5t-40 -7.5t-40 7.5
t-17 15.5q0 13 35 18q4 61 3 105q-1 25 -11 47t-25 34q-25 21 -24 50q0 29 23 48.5t56 19.5q21 0 39.5 -9t29 -24.5t10.5 -34.5q1 -29 -24 -50zM226 240q-15 -12 -25.5 -34t-10.5 -47q-1 -44 3 -105q35 -5 35 -18q0 -8 -17 -15.5t-40 -7.5t-40 7.5t-17 15.5q0 13 35 18
q4 61 3 105q-1 25 -11 47t-25 34q-25 21 -24 50q0 29 23 48.5t56 19.5q21 0 39.5 -9t29 -24.5t10.5 -34.5q1 -29 -24 -50z" />
    <glyph glyph-name="cluster_role_binding" unicode="cluster_role_binding" horiz-adv-x="448" 
d="M64 235h107v-43h-107v43zM140 -21h-97q-18 0 -30.5 12.5t-12.5 29.5v299q0 18 12.5 30.5t30.5 12.5h89q3 9 9 17t14 13.5t17.5 8.5t19.5 3q21 0 37.5 -11.5t22.5 -30.5h89q18 0 30.5 -12.5t12.5 -30.5v-130q-11 2 -21 2h-22v64h-298v-85h121q-25 -17 -40 -43h-81v-85h66
q6 -37 31 -64zM171 341.5q0 -8.5 6 -15t15 -6.5t15 6.5t6 14.5q0 6 -2.5 11t-7.5 8t-11 3q-9 0 -15 -6.5t-6 -15zM320 213.5q0 -8.5 -6.5 -15t-15 -6.5t-15 6.5t-6.5 15t6.5 15t15 6.5t15 -6.5t6.5 -15zM64 64v43h50q-7 -21 -7 -43h-43zM256 213.5q0 -8.5 -6.5 -15t-15 -6.5
t-15 6.5t-6.5 14.5q0 6 3 11t8 8t11 3q8 0 14.5 -6.5t6.5 -15zM277 21v-42h-42q-36 0 -61 25t-25 60t25 60t61 25h42v-42h-42q-18 0 -30.5 -12.5t-12.5 -30.5t12.5 -30.5t30.5 -12.5h42zM448 64q0 -23 -11.5 -42.5t-31 -31t-42.5 -11.5h-43v42h43q17 0 29.5 12.5t12.5 30.5
t-12.5 30.5t-29.5 12.5h-43v42h43q35 0 60 -25t25 -60zM341 43h-85v42h85v-42z" />
    <glyph glyph-name="cluster_role" unicode="cluster_role" horiz-adv-x="384" 
d="M341 363q18 0 30.5 -12.5t12.5 -30.5v-299q0 -11 -5.5 -21t-15.5 -15.5t-22 -5.5h-298q-18 0 -30.5 12.5t-12.5 29.5v299q0 18 12.5 30.5t30.5 12.5h89q3 9 9 16.5t14 13.5t17.5 9t19.5 3q20 0 36.5 -12t23.5 -30h89zM192 363q-9 0 -15 -6.5t-6 -15.5q0 -4 1.5 -8t4.5 -7
t7 -4.5t8 -1.5q9 0 15 6.5t6 15t-6 15t-15 6.5zM341 43v85h-298v-85h298zM341 171v85h-298v-85h298zM277 213q0 9 6.5 15.5t15.5 6.5t15 -6.5t6 -15.5t-6 -15t-15 -6q-6 0 -11 3t-8 8t-3 10zM213 213q0 9 6.5 15.5t15.5 6.5t15 -6.5t6 -15.5t-6 -15t-15 -6q-6 0 -11 3t-8 8
t-3 10zM213 85q0 9 6.5 15.5t15.5 6.5t15 -6.5t6 -15.5t-6 -15t-15 -6t-15.5 6t-6.5 15zM277 85q0 9 6.5 15.5t15.5 6.5t15 -6.5t6 -15.5t-6 -15t-15 -6t-15.5 6t-6.5 15zM64 192v43h107v-43h-107zM64 64v43h107v-43h-107z" />
    <glyph glyph-name="cog" unicode="cog" horiz-adv-x="494" 
d="M458 143q13 -23 36 -36l-51 -87q-35 20 -74 9.5t-59 -44.5q-13 -23 -13 -49h-101q0 40 -28.5 68.5t-68.5 28.5q-26 0 -49 -13l-50 88q35 20 45.5 59t-9.5 74q-13 22 -36 35l50 88q35 -21 74.5 -10.5t59.5 45.5q13 23 13 49h100q0 -27 13 -49.5t35.5 -35.5t49 -13t49.5 13
l50 -87q-35 -20 -45.5 -59t9.5 -74zM247 88q43 0 73.5 30.5t30.5 73.5t-30.5 73.5t-73.5 30.5t-73.5 -30.5t-30.5 -73.5t30.5 -73.5t73.5 -30.5z" />
    <glyph glyph-name="collocation" unicode="collocation" horiz-adv-x="427" 
d="M384 405q18 0 30.5 -12.5t12.5 -29.5v-342q0 -17 -12.5 -29.5t-30.5 -12.5h-341q-18 0 -30.5 12.5t-12.5 29.5v342q0 17 12.5 29.5t30.5 12.5h341zM384 21v342h-341v-342h341zM118 64h1q-22 0 -38 15.5t-16 37.5t16 38t38 16l50 87q-9 14 -9 30q0 22 15.5 37.5t38 15.5
t38 -15.5t15.5 -37.5q0 -16 -9 -30l51 -87h1q22 0 38 -16t16 -38t-16 -37.5t-38 -15.5q-12 0 -23.5 5.5t-18.5 15.5t-10 22h-87q-4 -19 -18.5 -31t-34.5 -12zM185 243l-44 -78q24 -11 30 -37h86q6 26 30 37l-45 78q-13 -8 -28.5 -8t-28.5 8z" />
    <glyph glyph-name="config_map" unicode="config_map" horiz-adv-x="466" 
d="M206 163q2 -1 2 -4q0 -1 -1 -2l-21 -37q-2 -3 -5 -3h-2l-26 11q-9 -6 -18 -10l-4 -29q-1 -4 -6 -4h-42q-5 0 -6 4l-4 29q-10 3 -18 10l-26 -11h-2q-3 0 -5 3l-21 37q-1 1 -1 2q0 3 2 4l23 18q-1 5 -1 10.5t1 10.5l-23 18q-2 1 -2 4q0 1 1 3l21 36q2 3 5 3h2l26 -11
q9 6 18 11l4 28q1 4 6 4h42q5 0 5 -4l4 -28q10 -4 19 -11l26 11h2q3 0 5 -3l21 -36q1 -2 1 -3q0 -3 -2 -4l-23 -18q1 -5 1 -10q0 -6 -1 -11zM104 160v0q13 0 22.5 9t9.5 23q0 6 -2.5 12t-7 10t-10.5 7t-12 3q-13 0 -22.5 -9.5t-9.5 -23t9.5 -22.5t22.5 -9zM402 448l64 -64
v-128q0 -6 -3 -11t-8 -8t-11 -3h-128q-9 0 -15 6.5t-6 15.5v85h-170v-21h-43v64h213v42q0 9 6.5 15.5t14.5 6.5h86zM391 373h59l-59 59v-59zM402 149l64 -64v-128q0 -9 -6.5 -15t-15.5 -6h-128q-9 0 -15 6t-6 15v43h-213v64h43v-22h170v86q0 6 3 10.5t8 7.5t10 3h86zM391 74
h59l-59 59v-59z" />
    <glyph glyph-name="configuration_file" unicode="configuration_file" horiz-adv-x="341" 
d="M139 146q8 0 14.5 -3.5t10.5 -10.5t4 -14q0 -12 -8.5 -20.5t-20.5 -8.5t-20.5 8.5t-8.5 20t8.5 20t20.5 8.5zM213 405l128 -128v-256q0 -18 -12.5 -30t-29.5 -13h-257q-17 1 -29.5 13t-12.5 30v341v1q0 11 6 21t15.5 15.5t21.5 5.5h170zM232 86v2q0 3 -1 4l-21 16
q1 5 1 10t-1 9l20 16q2 1 2 4v2l-20 33q-1 3 -4 3q-1 0 -2 -1l-23 -9q-8 6 -17 9l-3 25q-1 5 -5 5h-38q-4 -1 -5 -5l-4 -25q-9 -4 -16 -9l-24 9q-1 1 -2 1q-2 0 -4 -3l-19 -33q-1 -1 -1 -2q0 -3 2 -4l20 -16v-9.5v-9.5l-20 -16q-2 -1 -2 -4q0 -1 1 -2l19 -33q2 -3 4 -3
q1 0 2 1l24 9q7 -6 16 -9l4 -25q0 -4 5 -4h38q4 0 5 4l3 25q9 4 17 9l24 -9q0 -1 1 -1q3 0 5 3zM192 256h117l-117 117v-117z" />
    <glyph glyph-name="constraint" unicode="constraint" horiz-adv-x="427" 
d="M405 128q6 0 10.5 -3t7.5 -8t4 -10v-86q-1 -8 -7 -14t-15 -7h-106q-9 1 -15 7t-7 14v86q1 8 7 14t15 7v32q0 22 15.5 37.5t37.5 15.5t37.5 -15.5t15.5 -37.5v-32zM384 128v32q0 13 -9.5 22.5t-22.5 9.5t-22.5 -9.5t-9.5 -22.5v-32h64zM427 341h-427v43h427v-43zM427 256
h-427v43h427v-43zM235 171h-235v42h235v-42zM235 85h-235v43h235v-43zM235 0h-235v43h235v-43z" />
    <glyph glyph-name="container" unicode="container" horiz-adv-x="427" 
d="M384 235q18 0 30.5 -12.5t12.5 -30.5v-171q0 -17 -12.5 -29.5t-30.5 -12.5h-341q-18 0 -30.5 12.5t-12.5 29.5v171q0 18 12.5 30.5t30.5 12.5h32l113 73q-17 13 -17 34h21v-1q0 -8 6 -14.5t15 -6.5t15 6.5t6 14.5q0 6 -2.5 11t-7.5 8t-11 3v42h22v-27q21 -12 21 -36
q0 -21 -17 -34l113 -73h32zM213 299l-99 -64h199l-99 64h-1zM107 64v85q0 9 -6.5 15.5t-15 6.5t-15 -6.5t-6.5 -15.5v-85q0 -9 6.5 -15t14.5 -6q6 0 11 2.5t8 7.5t3 11zM192 64v85q0 9 -6 15.5t-15 6.5q-6 0 -10.5 -3t-7.5 -8t-3 -11v-85q0 -9 6 -15t15 -6t15 6t6 15z
M278 64v85q0 9 -6.5 15.5t-15.5 6.5t-15 -6.5t-6 -15.5v-85q0 -9 6 -15t15 -6t15.5 6t6.5 15zM363 64v85q0 9 -6 15.5t-15 6.5t-15 -6.5t-6 -15.5v-85q0 -9 6 -15t15 -6t15 6t6 15z" />
    <glyph glyph-name="content_lifecycle_management" unicode="content_lifecycle_management" horiz-adv-x="427" 
d="M85 256v43h171v-43h-171zM85 171v42h256v-42h-256zM85 85v43h64v-43h-64zM256 384l-64 -64v43h-149v-342h85v-42h-85q-18 0 -30.5 12.5t-12.5 29.5v342q0 17 12.5 29.5t30.5 12.5h149v43zM171 0l64 64v-43h149v342h-85v42h85q18 0 30.5 -12.5t12.5 -29.5v-342
q0 -17 -12.5 -29.5t-30.5 -12.5h-149v-43z" />
    <glyph glyph-name="counting" unicode="counting" 
d="M43 -21v426h42v-426h-42zM43 363h426v-43h-426v43zM427 -21v426h42v-426h-42zM128 341q0 18 12.5 30.5t30 12.5t30 -12.5t12.5 -30t-12.5 -30t-29.5 -12.5q-9 0 -17 3t-13.5 9t-9 14t-3.5 16zM43 235h426v-43h-426v43zM171 213.5q0 17.5 12.5 30t30 12.5t30 -12.5
t12.5 -30t-12.5 -30t-30 -12.5t-30 12.5t-12.5 30zM299 213.5q0 17.5 12.5 30t30 12.5t30 -12.5t12.5 -30t-12.5 -30t-30 -12.5t-30 12.5t-12.5 30zM43 107h426v-43h-426v43zM0 0h512v-43h-512v43zM128 85q0 18 12.5 30.5t30 12.5t30 -12.5t12.5 -30t-12.5 -30t-29.5 -12.5
q-7 0 -13.5 2t-12 6t-9.5 9t-6 11.5t-2 13.5z" />
    <glyph glyph-name="cpu" unicode="cpu" horiz-adv-x="491" 
d="M405 85q0 -17 -12.5 -29.5t-29.5 -12.5h-235q-18 0 -30.5 12.5t-12.5 29.5v235q0 18 12.5 30.5t30.5 12.5h235q17 0 29.5 -12.5t12.5 -30.5v-235zM171 21v-64h-22v64h22zM256 21v-64h-21v64h21zM299 21v-64h-22v64h22zM213 21v-64h-21v64h21zM341 21v-64h-21v64h21z
M171 448v-64h-22v64h22zM256 448v-64h-21v64h21zM299 448v-64h-22v64h22zM213 448v-64h-21v64h21zM341 448v-64h-21v64h21zM427 128h64v-21h-64v21zM427 213h64v-21h-64v21zM427 256h64v-21h-64v21zM427 171h64v-22h-64v22zM427 299h64v-22h-64v22zM0 128h64v-21h-64v21z
M0 213h64v-21h-64v21zM0 256h64v-21h-64v21zM0 171h64v-22h-64v22zM0 299h64v-22h-64v22z" />
    <glyph glyph-name="critical_bug" unicode="critical_bug" horiz-adv-x="341" 
d="M341 277v-42h-44q2 -11 2 -22v-21h42v-43h-42v-21q0 -11 -2 -21h44v-43h-59q-17 -29 -46.5 -46.5t-64.5 -17.5t-64.5 17.5t-46.5 46.5h-60v43h45q-2 10 -2 21v21h-43v43h43v21q0 11 2 22h-45v42h60q15 26 39 43l-35 34l30 30l47 -46q14 3 30 3v0q15 0 30 -3l46 46l30 -30
l-34 -34q24 -17 39 -43h59zM192 64v43h-43v-43h43zM192 149v128h-43v-128h43z" />
    <glyph glyph-name="cronjob" unicode="cronjob" horiz-adv-x="448" 
d="M192 384v42h128v-42h-128zM406 290q42 -53 42 -120q0 -79 -56.5 -135.5t-135.5 -56.5t-135.5 56.5t-56.5 135.5h-64l85 86l86 -86h-64q0 -62 43.5 -105.5t105.5 -43.5t106 44l-106 106v149q-48 -1 -87 -28l-30 31q52 39 117 39q67 0 120 -42l30 31l31 -30z" />
    <glyph glyph-name="csv_file" unicode="csv_file" horiz-adv-x="448" 
d="M298 20l43 1v-43h-299q-17 0 -29.5 12.5t-12.5 30.5v341q0 12 6 22t15.5 15.5t21.5 5.5h170l43 -42l42 -42l43 -44v-42h-43v21h-107v107h-149v-343h256zM411 64h-32l-38 128h32l22 -73l21 73h32zM171 192q8 0 14.5 -6.5t6.5 -15.5v-21h-32v11h-43v-64h43v10h32v-21
q0 -9 -6.5 -15t-14.5 -6h-64q-9 0 -15.5 6t-6.5 15v85q0 9 6.5 15.5t15.5 6.5h64zM320 160h-75v-16h54q8 0 14.5 -6.5t6.5 -15.5v-37q0 -9 -6.5 -15t-14.5 -6h-86v32h75v16h-53q-9 0 -15.5 6t-6.5 15v37q0 6 3 11t8 8t11 3h85v-32z" />
    <glyph glyph-name="daemon_set" unicode="daemon_set" horiz-adv-x="469" 
d="M43 -21q-18 0 -30.5 12.5t-12.5 29.5v299h43v-299h341v-42h-341zM322 235q-4 0 -7 1q-12 5 -12 18q0 8 5.5 13.5t13.5 5.5t13.5 -5.5t5.5 -13.5t-5.5 -13.5t-13.5 -5.5zM212 196h131q-8 -20 -26 -32q-18 -13 -40 -13t-40 13q-17 12 -25 32zM232 235q-3 0 -7 1
q-12 5 -12 18q0 8 5.5 13.5t13.5 5.5t14 -5.5t6 -13.5t-6 -13.5t-14 -5.5zM469 361v-253q0 -18 -13 -31t-31 -13h-296q-18 0 -31 13t-13 31v253q0 19 13 31.5t31 12.5h296q12 0 22 -5.5t16 -16t6 -22.5zM383 268q0 2 1 3t1.5 2.5t1.5 3t1 3.5q4 11 4 23q0 13 -5 26
q-5 11 -14 20t-22 14v0v0q4 -7 6 -13q4 -11 4 -22q0 -12 -4 -23v0v0q-8 8 -17 14q-29 18 -63 18t-62 -18q-9 -6 -17 -14v0v0q-3 8 -4 15v7v8q1 8 3.5 14.5t6.5 13.5v0v0q-13 -5 -22 -14q-19 -18 -20 -44v-3q0 -11 4 -22q1 -2 1.5 -3.5l1 -3t1.5 -2.5t2 -3q-3 -5 -4 -11
q-6 -17 -6 -35q0 -48 34 -81.5t81.5 -33.5t81 33.5t33.5 81.5q0 18 -5 35q-2 6 -4 11z" />
    <glyph glyph-name="daemon" unicode="daemon" horiz-adv-x="384" 
d="M368 248q16 -37 16 -77q0 -80 -56.5 -136t-135.5 -56t-135.5 56t-56.5 136q0 40 16 77q-2 5 -4.5 9.5t-4.5 9.5q-7 18 -7 38q0 34 19.5 61t49.5 39h1q-13 -21 -17 -45v-13q0 -20 6 -37v0q27 25 60 39q35 14 73 14t72 -14t60 -39v0q7 18 7 38q0 31 -16 57h1q41 -16 59 -56
q9 -21 9 -44q0 -20 -7 -38q-2 -5 -4.5 -9.5t-4.5 -9.5zM267 256h-1q-13 0 -22 -9t-9 -22.5t9 -23t23 -9.5q8 0 15.5 4.5t11.5 12t4 15.5q0 14 -9 23t-22 9zM117 256v0q-13 0 -22.5 -9t-9.5 -22.5t9.5 -23t22.5 -9.5t22.5 9.5t9.5 23t-9.5 22.5t-22.5 9zM192 53q37 0 67 21
q29 20 42 54h-218q13 -34 42 -54q30 -21 67 -21z" />
    <glyph glyph-name="database" unicode="database" 
d="M256 448q106 0 181 -23.5t75 -56.5v-64q0 -33 -75 -56.5t-181 -23.5t-181 23.5t-75 56.5v64q0 33 75 56.5t181 23.5zM256 176q106 0 181 23.5t75 56.5v-96q0 -33 -75 -56.5t-181 -23.5t-181 23.5t-75 56.5v96q0 -33 75 -56.5t181 -23.5zM256 32q106 0 181 23.5t75 56.5
v-96q0 -33 -75 -56.5t-181 -23.5t-181 23.5t-75 56.5v96q0 -33 75 -56.5t181 -23.5z" />
    <glyph glyph-name="deploy" unicode="deploy" 
d="M512 21v-43h-512v43h85v21q-17 0 -29.5 12.5t-12.5 30.5v213q0 18 12.5 30.5t29.5 12.5h43v-43h-43v-213h342v213h-43v43h43q17 0 29.5 -12.5t12.5 -30.5v-213q0 -18 -12.5 -30.5t-29.5 -12.5v-21h85zM320 149h-43v-43h-42v43h-43l64 64zM341 319q0 -23 -11.5 -42.5
t-31 -31t-42.5 -11.5q-35 0 -60 25t-25 60.5t25 60.5t60 25t60 -25t25 -61zM247 256v12q-7 0 -12 5t-5 12v9l-37 37q-1 -6 -1 -12q0 -16 7.5 -29.5t20 -22.5t27.5 -11zM304 278q16 18 16 42q0 19 -10.5 35t-28.5 23q0 -6 -5 -11t-12 -5h-17v-17q0 -8 -8 -8h-17v-18h51
q8 0 8 -8v-26h9q9 0 14 -7z" />
    <glyph glyph-name="disk" unicode="disk" horiz-adv-x="427" 
d="M352 54q22 -25 2 -45q-17 -17 -36 -4q-10 7 -15 18q-14 36 -36 95q-5 13 4.5 18t17.5 -6q5 -6 63 -76zM427 448v-512h-427v512h427zM384 405h-341v-426h21v32q0 4 3 7t7.5 3t7.5 -3t3 -7v-32h22v32q0 3 1.5 5t3.5 3.5t5 1.5q5 0 8 -3t3 -7v-32h21v32q0 4 3.5 7t7.5 3
t7.5 -3t3.5 -7v-32h213v426zM213 256q6 0 11 -3t8 -8t3 -10q0 -9 -6.5 -15.5t-15.5 -6.5q-4 0 -8 2t-7 4.5t-4.5 6.5t-1.5 9q0 8 6.5 14.5t14.5 6.5zM213 384q62 0 106 -43.5t44 -105.5q0 -63 -45 -107q-9 11 -12 15q-12 16 -30 16q-16 0 -26 -14q-10 -15 -3 -34l8 -20
q-21 -6 -42 -6q-62 0 -105.5 44t-43.5 106t43.5 105.5t105.5 43.5zM159.5 323.5q20.5 12.5 45.5 13.5l2 17q-30 -1 -55.5 -16.5t-40.5 -41.5l16 -6q12 21 32.5 33.5zM177 295q10 6 22 9l3 17q-18 -2 -33.5 -11.5t-25.5 -24.5l16 -6q8 10 18 16zM256 235q0 11 -5.5 21
t-15.5 15.5t-22 5.5q-17 0 -29.5 -12.5t-12.5 -30t12.5 -30t30 -12.5t30 12.5t12.5 30.5z" />
    <glyph glyph-name="dns" unicode="dns" horiz-adv-x="469" 
d="M75 11v64h42v-64h-42zM427 149q17 0 29.5 -12.5t12.5 -29.5v-128q0 -18 -12.5 -30.5t-29.5 -12.5h-384q-18 0 -30.5 12.5t-12.5 30.5v128q0 17 12.5 29.5t30.5 12.5h384zM149 11v64v0q0 7 -2.5 12.5t-6.5 10t-10 7t-12 2.5h-1h-74v-128h74h1q13 0 22 9t9 22v1zM288 -21
v128h-27v-75l-53 75h-27v-128h27v74l54 -74h26zM427 74v33h-86q-8 0 -14.5 -6.5t-6.5 -15.5v-37q0 -9 6.5 -15.5t14.5 -6.5h54v-15h-75v-32h85q9 0 15.5 6t6.5 15v37q0 9 -6.5 15t-15.5 6h-53v16h75zM70 192h-44q-5 21 -5 43q0 88 62.5 150.5t151 62.5t151 -62.5
t62.5 -150.5q0 -22 -4 -43h-44q5 21 5 43q0 21 -5 42h-72q2 -21 3 -42q-1 -22 -3 -43h-43q3 21 3 43q0 21 -3 42h-100q-3 -21 -4 -42q1 -22 4 -43h-43q-3 21 -3 43q0 21 3 42h-72q-6 -21 -6 -42q0 -22 6 -43zM382 320q-32 55 -92 76q19 -36 29 -76h63zM235 404
q-27 -39 -41 -84h81q-13 45 -40 84zM179 396q-60 -21 -92 -76h63q10 40 29 76z" />
    <glyph glyph-name="docker" unicode="docker" 
d="M103 79q11 0 19.5 8t8.5 19t-8 18.5t-20 7.5t-20 -7.5t-8 -18.5t8.5 -19t19.5 -8zM444 224h1q34 9 61 -7l6 -4l-4 -7q-19 -38 -75 -35q-34 -82 -103 -122.5t-161 -40.5q-105 0 -151 77v1l-5 9q-16 36 -12 76l1 8h342q20 0 36 5q3 1 9 4l8 4q-9 13 -11 33q-3 31 13 49l5 7
l7 -6q29 -22 33 -51zM274 245v0v-52h-52v52h52zM274 310v-52h-52v52h52zM274 376v-52h-52v52h52zM337 245v0v-52h-52v52h52zM145 245v0v-52h-52v52h52zM210 245v0v-52h-52v52h52zM81 245h1v-52h-52v52h51zM210 310v0v-52h-52v52h52zM145 310v0v-52h-51v52h51z" />
    <glyph glyph-name="endpoints_connected" unicode="endpoints_connected" horiz-adv-x="384" 
d="M384 170h-256v-106h21v-85h-85v85h21v106h-85v43h256v107h-21v85h85v-85h-21v-107h85v-43z" />
    <glyph glyph-name="endpoints_disconnected" unicode="endpoints_disconnected" horiz-adv-x="397" 
d="M0 343l27 27l357 -357l-27 -27l-185 184h-31v-106h21v-85h-85v85h21v106h-85v43h117zM312 213h85v-43h-116l-42 43h30v107h-21v85h85v-85h-21v-107z" />
    <glyph glyph-name="endpoints" unicode="endpoints" horiz-adv-x="384" 
d="M0 171v43h43v-43h-43zM85 85v43h42v-43h-42zM85 171v43h42v-43h-42zM170 171v43h43v-43h-43zM256 171v43h42v-43h-42zM341 171v43h43v-43h-43zM256 256v42h42v-42h-42zM63 -21v85h86v-85h-86zM234 320v85h86v-85h-86z" />
    <glyph glyph-name="enhancement" unicode="enhancement" horiz-adv-x="426" 
d="M0 -22v172h85v-172h-85zM149 -22v256h86v-256h-86zM426 320h-42v-342h-86v342h-42l85 85z" />
    <glyph glyph-name="file_system" unicode="file_system" horiz-adv-x="384" 
d="M235 171q-6 0 -11 2.5t-8 7.5t-3 11v21h-106v-149h106v21q0 9 6.5 15.5t15.5 6.5h42l22 -22h64q3 0 6.5 -1t6 -3t4.5 -4.5t3 -6t1 -6.5v-64q0 -9 -6.5 -15t-14.5 -6h-128q-6 0 -11 2.5t-8 7.5t-3 11v21h-149v278h-43q-8 0 -14.5 6t-6.5 15v85q0 6 3 11t8 8t10 3h43
l21 -22h64q6 0 11 -2.5t8 -7.5t3 -11v-64q0 -9 -6.5 -15t-15.5 -6h-42v-43h106v21q0 9 6.5 15.5t15.5 6.5h42l22 -22h64q8 0 14.5 -6t6.5 -15v-64q0 -9 -6.5 -15t-14.5 -6h-128z" />
    <glyph glyph-name="git_branch" unicode="git_branch" horiz-adv-x="320" 
d="M320 288q0 -36 -33 -55h1q-3 -60 -40 -97q-38 -38 -88 -40q-18 0 -30 -5q-2 -1 -6 -4.5l-8 -7t-5 -3.5q17 -19 17 -44q0 -27 -18.5 -45.5t-45.5 -18.5t-45.5 18.5t-18.5 45.5q0 36 32 55v210q-32 18 -32 55q0 27 18.5 45.5t45 18.5t45.5 -18.5t19 -45.5q0 -37 -32 -55
v-152q24 13 64 14q25 1 44 20t20 44v10q-32 18 -32 55q0 27 18.5 45.5t45.5 18.5t45.5 -18.5t18.5 -45.5zM64 390q-16 0 -27 -11t-11 -27t11 -27t27 -11t27 11t11 27t-11 27t-27 11zM64 -7q16 0 27 11.5t11 27.5q0 10 -5 19t-14 14t-19 5q-16 0 -27 -11.5t-11 -27t11 -27
t27 -11.5zM256 249q16 0 27 11.5t11 27t-11 27t-27 11.5q-10 0 -19 -5t-14 -14t-5 -19q0 -16 11 -27.5t27 -11.5z" />
    <glyph glyph-name="git_commit" unicode="git_commit" horiz-adv-x="448" 
d="M348 224h100v-64h-100q-8 -27 -25.5 -49t-43.5 -34.5t-55 -12.5q-44 0 -78.5 27t-45.5 69h-100v64h100q11 42 45.5 69t78.5 27t78.5 -27t45.5 -69zM224 122q29 0 49.5 20.5t20.5 49.5t-20.5 49.5t-49.5 20.5t-49.5 -20.5t-20.5 -49.5t20.5 -49.5t49.5 -20.5z" />
    <glyph glyph-name="git_repo" unicode="git_repo" horiz-adv-x="384" 
d="M128 160h-32v32h32v-32zM128 256v-32h-32v32h32zM128 320v-32h-32v32h32zM128 384v-32h-32v32h32zM384 416v-384q0 -13 -9.5 -22.5t-22.5 -9.5h-160v-64l-48 48l-48 -48v64h-64q-13 0 -22.5 9.5t-9.5 22.5v384q0 13 9.5 22.5t22.5 9.5h320q13 0 22.5 -9.5t9.5 -22.5z
M352 96h-320v-64h64v32h96v-32h160v64zM352 416h-288v-288h288v288z" />
    <glyph glyph-name="github" unicode="github" 
d="M256 448q106 0 181 -75t75 -181q0 -84 -48.5 -150.5t-125.5 -92.5q-9 -2 -13.5 2t-4.5 10v25.5v45.5q0 32 -17 47q24 3 42.5 9t36.5 19.5t28 38t10 59.5q0 40 -26 69q12 31 -3 68q-21 7 -70 -26q-31 8 -64.5 8t-63.5 -8q-22 14 -39.5 21t-24.5 6l-7 -1q-15 -37 -2 -68
q-27 -29 -27 -69q0 -35 10 -59.5t28 -38t36.5 -19.5t42.5 -9q-13 -11 -16 -34q-49 -22 -75 21q-17 27 -39 26q-8 0 -10.5 -2t-1 -4.5t4.5 -5.5t7 -5q7 -4 15 -16t11 -20q16 -43 86 -30q0 -13 0.5 -30t0.5 -18q0 -3 -2 -6t-6 -5t-10 -1q-77 26 -126 92.5t-49 150.5
q0 106 75 181t181 75z" />
    <glyph glyph-name="gitlab" unicode="gitlab" 
d="M30 246l226 -290l-248 180q-5 4 -7 10t0 12zM162 246h188l-94 -290zM105 421l57 -175h-132l56 175q3 7 10 7t9 -7zM482 246l29 -88q2 -6 0 -12t-7 -10l-248 -180zM482 246h-132l57 175q2 7 9.5 7t9.5 -7z" />
    <glyph glyph-name="helm" unicode="helm" horiz-adv-x="486" 
d="M100 85q51 -71 128.5 -78t138.5 57q8 9 22 29l-18 13q-14 -18 -21 -26q-47 -50 -108 -50q-74 0 -123 69l-7 9l-19 -13zM230 -20q0 11 2.5 21t6.5 16t8 6q7 0 12 -13t5 -30.5t-5 -30t-12 -12.5t-12 12.5t-5 30.5zM230 -20q0 -18 5 -31t12.5 -13t12.5 13t5 31t-5 30.5
t-13 12.5q-5 0 -9 -5.5t-6 -16t-2 -21.5zM230 -20q0 18 5 30.5t12 12.5q4 0 7 -3.5t5.5 -9t4 -14t1.5 -16.5q0 -18 -5 -31t-12.5 -13t-12.5 13t-5 31zM76 23q-8 -21 7 -21q5 0 11 2q12 6 24 19t17 26q9 22 -7 22q-5 0 -11 -3q-8 -3 -16.5 -10.5t-15 -16.5t-9.5 -18zM118 68
q19 8 19 -8q0 -4 -2 -11q-4 -8 -10.5 -17t-15 -16t-16.5 -11q-19 -8 -19 8q0 4 3 10q5 13 17 26t24 19zM76 24q5 13 17 26t24.5 18t17.5 -0.5t0 -18.5t-17 -26t-24.5 -18t-17.5 0t0 19v0zM343 66q0 -6 3 -13q4 -9 11.5 -19t17 -18.5t17.5 -12.5q22 -10 22 7q0 5 -4 12
q-6 14 -19 28.5t-27 21.5q-6 4 -13.5 3t-7.5 -9zM410 22q9 -21 -6 -21q-4 0 -11 3q-13 6 -26.5 20.5t-19.5 28.5q-9 22 5 22q5 0 12 -4q13 -6 26.5 -20.5t19.5 -28.5zM364 72q13 -7 26.5 -21.5t19.5 -28.5t1 -19.5t-18.5 1t-27 21t-19 28.5t-0.5 19.5t18 -0.5v0zM385 299
q-51 71 -128.5 78t-138.5 -57q-8 -9 -22 -29l18 -13q14 18 21 26q47 50 108 50q74 0 123 -69l7 -9l19 13zM229 404q0 18 5 30.5t12 12.5t12 -12.5t5 -30t-5 -30.5t-12 -13q-5 0 -9 6t-6 16t-2 21zM228 404q0 -18 5 -30.5t12.5 -12.5t13 12.5t5.5 30.5t-5.5 31t-12.5 13
q-5 0 -9 -6t-6.5 -16t-2.5 -22zM228 404q0 18 5.5 31t12.5 13t12 -13t5 -31t-5 -30.5t-12 -12.5q-5 0 -9 6t-6.5 16t-2.5 21zM402 382q-5 0 -11 -2q-12 -6 -24 -19t-17 -26q-9 -22 7 -22q5 0 11 3q12 5 24 18t17 26q4 7 2.5 14.5t-9.5 7.5zM367 316q-19 -8 -19 8q0 4 2 11
q5 13 17 25.5t25 18.5q19 8 19 -8q0 -4 -3 -10q-5 -13 -17 -26t-24 -19zM409 360q-5 -13 -17 -26t-25 -18q-6 -3 -10.5 -2.5t-6.5 3t-2.5 7t2.5 11.5q5 13 17 26t24.5 18t17.5 0t0 -19v0zM142 318q0 6 -3 13q-4 9 -11.5 19t-17 18.5t-17.5 12.5q-22 10 -22 -7q0 -5 4 -12
q6 -14 19 -28.5t27 -21.5q6 -4 13.5 -3t7.5 9zM75 362q-9 21 6 21q4 0 11 -3q9 -4 18 -12t16.5 -18t11.5 -19q9 -22 -5 -22q-5 0 -12 4q-8 4 -17.5 12t-17 18t-11.5 19zM121 312q-13 7 -26.5 21.5t-19.5 28.5t-1 19.5t18.5 -1t27 -21t19 -28.5t0.5 -19.5t-18 0.5v0zM0 262
h35v-53h39v53h35v-141h-35v56h-39v-56h-35v141zM138 262h85v-31h-50v-22h43v-32h-43v-25h52v-31h-87v141zM250 262h35v-110h50v-31h-85v141zM358 262h36l20 -59l8 -23l8 23l19 59h37v-141h-33v41q0 6 1 12q0 4 1 14q0 7 1 13q1 7 2 12h-1l-11 -33l-18 -48h-13l-18 48l-11 33
h-1l2 -12t1 -13q1 -10 1 -14q1 -6 1 -12v-41h-32v141z" />
    <glyph glyph-name="image" unicode="image" horiz-adv-x="320" 
d="M277 384l43 21v-384q0 -17 -12.5 -29.5t-30.5 -12.5h-234q-18 0 -30.5 12.5t-12.5 29.5v320q0 18 12.5 30.5t30.5 12.5h234zM43 320v-43h170v43h-170zM128 21v43h-43v-43h43zM128 149v-42h85v42h-85zM277 21v43h-128v-43h128zM277 107v42h-42v-42h42zM277 192v43h-106
v-43h106zM277 277v43h-42v-43h42z" />
    <glyph glyph-name="inbound" unicode="inbound" horiz-adv-x="427" 
d="M384 405q18 0 30.5 -12.5t12.5 -29.5v-214h-43v171l-171 -107l-170 107v-213h170v-43h-170q-18 0 -30.5 12.5t-12.5 30.5v256q0 17 12.5 29.5t30.5 12.5h341zM213 256l171 107h-341zM341 171v-64h86v-43h-86v-64l-85 85z" />
    <glyph glyph-name="ingress" unicode="ingress" horiz-adv-x="469" 
d="M277 -64h-85v85h85v-85zM320 234h-64v-170h-43v170h-64l22 22l21 21l21 21l22 22l21 -22l21 -21l22 -21zM0 107v277q0 9 3 17q7 15 23 22q8 4 17 4h384q8 0 16 -4q16 -6 23 -22q3 -8 3 -17v-277q0 -9 -3 -17q-7 -16 -23 -23q-8 -3 -16 -3h-128v42h128v278h-384v-278h128
v-42h-128q-9 0 -17 3q-16 7 -23 23q-3 8 -3 17z" />
    <glyph glyph-name="ip" unicode="ip" horiz-adv-x="469" 
d="M70 192h-44q-5 21 -5 43q0 88 62.5 150.5t151 62.5t151 -62.5t62.5 -150.5q0 -22 -4 -43h-44q5 21 5 43q0 21 -5 42h-72q2 -21 3 -42q-1 -22 -3 -43h-43q3 21 3 43q0 21 -3 42h-100q-3 -21 -4 -42q1 -22 4 -43h-43q-3 21 -3 43q0 21 3 42h-72q-6 -21 -6 -42q0 -22 6 -43z
M382 320q-32 55 -92 76q19 -36 29 -76h63zM235 404q-27 -39 -41 -84h81q-13 45 -40 84zM179 396q-60 -21 -92 -76h63q10 40 29 76zM251 53v22h42v-22h-42zM427 149q17 0 29.5 -12.5t12.5 -29.5v-128q0 -18 -12.5 -30.5t-29.5 -12.5h-384q-18 0 -30.5 12.5t-12.5 30.5v128
q0 17 12.5 29.5t30.5 12.5h384zM176 -21v128h-32v-128h32zM325 53v22v0q0 13 -9 22.5t-22 9.5h-1h-74v-128h32v42h42h1q13 0 22 9.5t9 22.5z" />
    <glyph glyph-name="job" unicode="job" horiz-adv-x="405" 
d="M341 101q22 -12 22 -37q0 -12 -6 -21.5t-15.5 -15.5t-21.5 -6q-18 0 -30.5 12.5t-12.5 30.5q0 25 22 37v112l-43 43h-149v-64h64v-85h-64v-64h48q13 21 37 21q18 0 30.5 -12.5t12.5 -30t-12.5 -30t-30.5 -12.5q-24 0 -37 21h-91v43v64h-64v85h64v128h-64v85h171v-85h-64
v-21h149l64 64l85 -86l-64 -64v-112zM21 341h128v43h-128v-43zM192 43q-9 0 -15 -6.5t-6 -15.5q0 -5 2.5 -10t7.5 -8t11 -3q9 0 15 6.5t6 15t-6 15t-15 6.5zM149 171h-128v-43h128v43zM320 333l-55 -56l55 -55l55 55zM320 43q9 0 15 6t6 15t-6 15t-15 6t-15 -6t-6 -15t6 -15
t15 -6z" />
    <glyph glyph-name="kubelet" unicode="kubelet" 
d="M60 128h-60l27 59l26 58l27 59l27 59h59l-26 -59l-27 -59l-27 -58zM171 406v-22h-64v22q0 4 1 8q6 13 20 13h47q-1 -3 -2 -5.5t-1.5 -5t-0.5 -5.5v-5zM107 85q0 -5 0.5 -11t2 -11t4 -10.5t5.5 -9.5h-34q-17 0 -29.5 12.5t-12.5 29.5h16h16h16h16zM341 406v-22h-128v22
q0 4 2 8q6 13 20 13h85q9 0 15 -6.5t6 -14.5zM326 107l-16 -16l-16 -16l-16 -16l-16 -16h-70q-18 0 -30.5 12.5t-12.5 29.5v22h177zM331 128h-224l26 59l27 58l27 59l26 59h128l16 -34l15 -34l16 -34l15 -34q-5 -2 -10.5 -5t-10.5 -6t-9.5 -6.5t-8.5 -7.5q-31 -31 -33 -74z
M320 256q0 17 -12.5 29.5t-30 12.5t-30 -12.5t-12.5 -30t12.5 -30t30.5 -12.5q28 0 39 26q3 8 3 17zM320 -40q-1 -1 -3 -2t-3 -1h-1q-2 0 -4 1.5t-4 2.5l-6 7l-6 6l-6 6l-6 6q-2 1 -3 3t-1 4t1 4t3 4l24 24l24 24l25 25l24 24q-5 12 -5 24q0 7 2 14q2 10 7 19q10 19 30 29
q10 5 20 7q6 1 12 1q5 0 9 -1q11 -1 20 -6l-11 -12l-12 -11l-11 -12l-12 -12l8 -8l8 -8l8 -8l8 -8l12 12l12 11l11 12l12 11q4 -9 5 -20q1 -5 1 -9q0 -6 -1 -12q-2 -10 -6 -20q-5 -10 -13 -18q-8 -7 -17 -12t-19 -7q-6 -1 -14 -1q-12 0 -24 4l-25 -24l-24 -24l-24 -24z" />
    <glyph glyph-name="kubernetes" unicode="kubernetes" horiz-adv-x="497" 
d="M454 341l43 -186q2 -15 -7 -27l-120 -149q-10 -13 -26 -12h-191q-15 1 -26 12l-120 149q-9 12 -6 27l42 187q4 15 17 21l174 84q4 1 14 1q9 0 14 -3l174 -83q14 -7 18 -21zM427 162q-1 0 -1 1t-2 1h-7q-2 0 -3 1h-1q-10 1 -19 3q-3 1 -4 4v0l-5 1q3 24 -2 50
q-6 25 -20 47l3 3v1q0 3 2 5q6 6 16 11q1 1 2 1.5l1 0.5l4 2t3 2h0.5t0.5 1v1q10 7 3 16q-3 4 -8 4q-4 0 -8 -3l-1 -1q-1 -1 -2 -1q-3 -3 -4 -5l-2 -2q-7 -8 -15 -13q-2 -1 -3 -1q-2 0 -2 1h-1l-4 -3q-3 2 -7.5 6.5l-7.5 7.5q-32 25 -74 29v5v-1q-2 1 -3 5q0 12 1 19v1
l0.5 1t0.5 2t0.5 3.5t0.5 3.5v3q0 4 -3 8t-7 4q-5 1 -10 -4q-3 -3 -3 -8v-3q0 -2 1 -6q1 -2 1 -4q1 -7 1 -20q-1 -3 -3 -4v-2v-4q-6 -1 -20 -3q-40 -9 -70 -40l-3 3h-1l-0.5 -0.5t-1.5 -0.5t-3 1q-9 7 -15 13l-2 2q-1 1 -2.5 3t-2.5 3q-1 0 -1 1h-1q-4 3 -8 3q-5 0 -8 -4
q-6 -9 3 -16v0q1 -1 2 -1q2 -2 6 -4q1 0 2 -0.5t1 -1.5q12 -6 16 -11q3 -3 2 -5v0l4 -3q-1 0 -1.5 -1t-0.5 -2q-28 -44 -20 -93l-5 -1v-1l-4 -4q-10 -2 -20 -3q-2 0 -3 -1h-3.5h-3.5l-0.5 -0.5t-1.5 -0.5h-1q-11 -2 -9 -14q2 -9 11 -7h3t1 1h2q1 0 4 1q1 1 2 1q2 1 3 1h1
q10 4 19 5q3 0 5 -2v0h6q13 -40 46 -66q9 -7 16 -10l-3 -4v-1q2 -2 1 -6q-3 -7 -9 -16v-1l-2 -2t-2.5 -3t-1.5 -3q-1 0 -1 -1t-1 -1v0q-5 -10 4 -16q3 -1 4 -1q7 0 11 7h1q0 1 1 2q0 1 1 3t1 3l1 4q2 6 8 17q1 3 4 4h1l2 5q23 -9 50 -9q16 0 30 4q3 0 19 5l2 -4v-1
q3 -1 5 -3q6 -11 7 -18l1 -4l3 -6l0.5 -0.5t0.5 -1.5v0q4 -7 11 -7q1 0 5 1q4 2 5 6q1 5 -1 9v1l-1 1q-2 4 -4 6l-3 3v1q-5 7 -9 16q-1 4 1 6v1l-1 4q46 28 61 78l5 -1v1q2 1 5 1q10 -1 19 -5q2 -1 4 -1q5 -3 6 -3h0.5h1.5t1 -1h3q8 0 11 7q0 10 -10 12zM263 180l-16 -7
l-15 7l-4 17l11 13h17l11 -13zM356 217q4 -17 2 -36l-54 16q-9 2 -7 11l2 4l43 39q9 -16 14 -34zM325 272l-47 -33q-8 -5 -12 2q-2 2 -2 4l-3 57q37 -4 64 -30zM222 301l11 2l-3 -57q0 -9 -9 -9q-1 0 -5 1l-47 34q23 22 53 29zM152 251l43 -38q7 -6 1 -13q-2 -2 -5 -3
l-55 -16q-3 37 16 70zM143 154l56 10q9 0 10 -7q1 -3 -1 -6l-21 -52q-32 20 -44 55zM272 84q-13 -3 -25 -3q-16 0 -35 6l27 50q5 6 12 3q2 -1 4 -4l28 -50q-7 -1 -11 -2zM341 133q-13 -21 -34 -34l-22 54q-2 8 5 11q4 1 5 1l57 -10q-5 -13 -11 -22z" />
    <glyph glyph-name="lab" unicode="lab" horiz-adv-x="476" 
d="M460 46q27 -46 9 -78t-71 -32h-320q-53 0 -71 32t9 78l158 263v107h-16q-7 0 -11.5 4.5t-4.5 11.5t4.5 11.5t11.5 4.5h160q7 0 11.5 -4.5t4.5 -11.5t-4.5 -11.5t-11.5 -4.5h-16v-107zM103 128h270l-103 172v116h-64v-116z" />
    <glyph glyph-name="link" unicode="link" horiz-adv-x="500" 
d="M214 130q-11 0 -18 8q-36 35 -36 86t36 86l96 96q35 36 85.5 36t86.5 -35.5t36 -86.5t-36 -86l-44 -44q-7 -8 -18 -8t-18.5 7.5t-7.5 18.5t8 19l43 43q21 21 21 50t-20.5 49.5t-49.5 20.5t-50 -21l-96 -96q-20 -20 -20 -49t20 -50q8 -7 8 -18t-7.5 -18.5t-18.5 -7.5z
M121.5 -58q-50.5 0 -86 35.5t-35.5 86.5t36 86l44 44q5 5 11.5 7t13 0t11.5 -7q8 -7 8 -18t-8 -19l-44 -44q-20 -20 -20 -49t20.5 -49.5t49.5 -20.5t49 20l96 96q21 21 21 50t-21 49q-7 8 -7 19t7.5 18.5t18.5 7.5t18 -8q36 -35 36 -86t-36 -86l-96 -96q-36 -36 -86.5 -36z
" />
    <glyph glyph-name="master" unicode="master" horiz-adv-x="427" 
d="M43 21h341v-42h-341v42zM405.5 341q8.5 0 15 -6t6.5 -15t-6.5 -15t-15.5 -6h-1l-10 -117l-10 -118h-341l-10 118l-10 117h-0.5h-1.5q-8 0 -14.5 6t-6.5 15t6.5 15t15 6t15 -6t6.5 -15q0 -4 -1.5 -7t-3.5 -6l45 -36l45 -36l37 65l38 66q-5 3 -8 7.5t-3 10.5q0 9 6.5 15
t15 6t15 -6t6.5 -15q0 -6 -3 -10.5t-8 -7.5l37 -66l38 -65l45 36l45 36q-2 3 -3.5 6t-1.5 7q0 9 6.5 15t15 6z" />
    <glyph glyph-name="meter" unicode="meter" 
d="M256 416q106 0 181 -75t75 -181q0 -71 -36 -131t-96 -93h-248q-60 33 -96 93t-36 131q0 106 75 181t181 75zM401 15q60 60 60 145h-45v32h42q-5 34 -21 64h-53v32h32q-7 9 -15 17q-35 35 -81 50v-35h-32v43q-16 2 -32 2t-32 -2v-43h-32v35q-46 -15 -81 -50q-8 -8 -15 -17
h32v-32h-53q-16 -30 -22 -64h43v-32h-45q0 -85 60 -145q8 -8 17 -15h96l18 256h28l18 -256h96q9 7 17 15z" />
    <glyph glyph-name="miscellaneous" unicode="miscellaneous" horiz-adv-x="384" 
d="M320 171l21 -168v-3q0 -9 -6 -15t-15 -6h-256q-9 0 -15 6t-6 15v3l21 168h256zM384 235v-43h-384v43h384zM250 324q38 -24 49 -68h-43q0 9 -6.5 15t-14.5 6q-6 0 -11 -2.5t-8 -7.5t-3 -11h-42q0 4 -2 8t-4.5 7t-6.5 4.5t-9 1.5q-8 0 -14.5 -6t-6.5 -15h-43q11 44 49 68
q-6 20 -6 40v2q0 25 6 43t15 18t15.5 -18t6.5 -43q0 -14 -3 -28q12 3 24 3t24 -3q-3 14 -3 28v0q0 25 6.5 43t15.5 18t15 -18t6 -43v-1v-1q0 -20 -6 -40z" />
    <glyph glyph-name="modified_date" unicode="modified_date" horiz-adv-x="427" 
d="M384 384q12 0 21.5 -5.5t15.5 -15.5t6 -22v-341q0 -18 -12.5 -30.5t-30.5 -12.5h-341q-18 0 -30.5 12.5t-12.5 30.5v341q0 18 12.5 30.5t30.5 12.5h21v43h43v-43h213v43h43v-43h21zM118 0l201 201l-76 75l-200 -201v-75h75zM378 260q6 6 6 14.5t-6 13.5l-47 47
q-6 6 -14 6t-14 -6l-40 -39l76 -75z" />
    <glyph glyph-name="molecules" unicode="molecules" 
d="M448 256q26 0 45 -19t19 -45t-19 -45t-45 -19q-4 0 -8 1l-31 -63q18 -19 18 -45t-19 -45t-45 -19q-21 0 -37.5 12t-22.5 31h-94q-6 -19 -22.5 -31t-37.5 -12q-13 0 -24.5 5t-20.5 14t-14 20.5t-5 24.5q0 26 18 45l-31 63q-4 -1 -8 -1q-26 0 -45 19t-19 45t19 45t45 19
q4 0 8 -1l31 63q-18 19 -18 45t19 45t45 19q14 0 26 -5.5t21 -15.5t13 -22h94q6 19 22.5 31t37.5 12q26 0 45 -19t19 -45t-18 -45l31 -63q4 1 8 1zM371 85l31 63q-18 18 -18 44t18 44l-32 63h-10q-13 0 -25 5.5t-20.5 15t-11.5 21.5h-94q-4 -12 -13 -21.5t-21 -15t-26 -5.5
h-7l-32 -63q18 -18 18 -44t-18 -44l32 -63h7q21 0 37.5 -11.5t22.5 -30.5h94q6 19 22.5 30.5t37.5 11.5h8z" />
    <glyph glyph-name="move" unicode="move" horiz-adv-x="427" 
d="M427 192l-85 -86v64h-107v-106h64l-85 -86l-86 86h64v106h-107l1 -64l-86 86l85 85v-64h107v107h-64l86 85l85 -85h-64v-107h107v64z" />
    <glyph glyph-name="multistate" unicode="multistate" horiz-adv-x="469" 
d="M0 362.5q0 26.5 18.5 45.5t45.5 19q17 0 32 -8.5t23.5 -23.5t8.5 -32q0 -27 -18.5 -45.5t-45.5 -18.5t-45.5 18.5t-18.5 45zM64 128q-26 0 -45 19t-19 45t19 45t45 19t45 -19t19 -45t-19 -45t-45 -19zM64 235q-18 0 -30.5 -12.5t-12.5 -30.5t12.5 -30.5t30.5 -12.5
t30.5 12.5t12.5 30.5t-12.5 30.5t-30.5 12.5zM234.5 -43q-26.5 0 -45 19t-18.5 45q0 18 8.5 32.5t23 23t32.5 8.5q26 0 45 -18.5t19 -45t-19 -45.5t-45.5 -19zM234.5 64q-17.5 0 -30 -12.5t-12.5 -30t12.5 -30t30 -12.5t30 12.5t12.5 30t-12.5 30t-30 12.5zM405.5 299
q-26.5 0 -45.5 18.5t-19 45t19 45.5t45.5 19t45 -19t18.5 -45.5t-18.5 -45t-45 -18.5zM405.5 405q-17.5 0 -30 -12.5t-12.5 -30t12.5 -30t29.5 -12.5q12 0 22 5.5t15.5 15.5t5.5 22q0 17 -12.5 29.5t-30 12.5zM0 21q0 18 8.5 32.5t23.5 23t32 8.5q27 0 45.5 -18.5t18.5 -45
t-18.5 -45.5t-45.5 -19t-45.5 19t-18.5 45zM171 362.5q0 26.5 18.5 45.5t45.5 19q17 0 32 -8.5t23.5 -23.5t8.5 -32q0 -27 -19 -45.5t-45.5 -18.5t-45 18.5t-18.5 45zM171 192q0 27 18.5 45.5t45 18.5t45.5 -18.5t19 -45.5t-19 -45.5t-45.5 -18.5t-45 18.5t-18.5 45.5z
M341 192q0 27 19 45.5t45.5 18.5t45 -18.5t18.5 -45.5q0 -13 -5 -25t-13.5 -20.5t-20.5 -13.5t-25 -5q-26 0 -45 18.5t-19 45.5zM341 21.5q0 26.5 19 45t45.5 18.5t45 -18.5t18.5 -45t-18.5 -45.5t-45 -19t-45.5 19t-19 45.5z" />
    <glyph glyph-name="namespace" unicode="namespace" horiz-adv-x="469" 
d="M469 213v-42q-13 0 -17 -6t-4 -22v-96q0 -39 -21 -53.5t-64 -14.5v42h10t9 0.5t7 1t6.5 1.5t4 3t3.5 5t1.5 7.5t0.5 10.5v92v5q0 15 7 28t21 17q-14 4 -21 17t-7 28v5v92q0 6 -0.5 10.5t-1.5 7.5t-3.5 5t-4 3t-6.5 1.5t-7 1t-9 0.5h-10v42q43 0 64 -14.5t21 -53.5v-96
q0 -16 4 -22t17 -6zM0 213q13 0 17 6t4 22v96q0 39 21 53.5t65 14.5v-42h-11t-9 -0.5t-7 -1t-6 -1.5t-4 -3t-3.5 -5t-1.5 -7.5t-1 -10.5v-92v-5q0 -15 -6 -28q-8 -13 -22 -17q14 -4 22 -17q6 -13 6 -28v-5v-92q0 -14 4 -20t9.5 -7t19.5 -2h3.5h3h3.5v-42q-44 0 -65 14.5
t-21 53.5v96q0 16 -4 22t-17 6v42zM363 256v-128h-256v128h256zM149 213v-42h171v42h-171z" />
    <glyph glyph-name="network_file_system" unicode="network_file_system" horiz-adv-x="427" 
d="M299 85v-21h128v-43h-128v-21h-171v21h-128v43h128v21h64v86h43v-86h64zM277 171h-192q-8 0 -14.5 6t-6.5 15v171q0 8 6.5 14.5t14.5 6.5h107l21 -21h128q9 0 15.5 -6.5t6.5 -15.5v-149q0 -9 -6.5 -15t-15.5 -6h-64z" />
    <glyph glyph-name="network_policy" unicode="network_policy" 
d="M235 426.5q0 8.5 6 15t15 6.5q6 0 11 -3t7.5 -8t2.5 -10.5t-2.5 -10.5t-7.5 -8t-11 -3q-9 0 -15 6.5t-6 15zM64 299q-9 0 -15 6t-6 15t6 15t15 6t15 -6t6 -15t-6 -15t-15 -6zM149.5 384q-8.5 0 -15 6.5t-6.5 14.5q0 6 3 11t8 8t10 3q9 0 15.5 -6.5t6.5 -15t-6.5 -15
t-15 -6.5zM362.5 384q-8.5 0 -15 6.5t-6.5 15t6.5 15t15 6.5t15 -6.5t6.5 -15t-6.5 -15t-15 -6.5zM448 299q-6 0 -11 2.5t-7.5 7.5t-2.5 11q0 9 6 15t15 6t15 -6t6 -15t-6 -15t-15 -6zM228 24q-61 10 -102 57.5t-41 110.5q0 71 50 121t121 50q32 0 61.5 -11.5t52.5 -32
t37 -48.5l-23 10l-27 -11q-20 26 -50 39q-1 -13 -10.5 -22.5t-23.5 -9.5h-34v-34q0 -7 -5 -12t-12 -5h-34v-34h25v-91q-8 10 -8 23v17l-75 74q-2 -11 -2 -23q0 -28 11.5 -53t31 -42.5t44.5 -25.5q4 -24 13 -47zM149.5 0q8.5 0 15 -6.5t6.5 -14.5q0 -6 -3 -11t-8 -8t-11 -3
q-8 0 -14.5 6.5t-6.5 15t6.5 15t15 6.5zM256 -21q9 0 15 -6.5t6 -15.5q0 -5 -2.5 -10t-7.5 -8t-11 -3q-9 0 -15 6.5t-6 15t6 15t15 6.5zM64 85q9 0 15 -6t6 -15t-6 -15t-15 -6t-15 6t-6 15t6 15t15 6zM21.5 213q8.5 0 15 -6t6.5 -15t-6.5 -15t-15.5 -6q-5 0 -10 2.5t-8 7.5
t-3 11q0 9 6.5 15t15 6zM512 181v-82q-2 -58 -37.5 -103t-90.5 -60q-55 15 -90.5 59.5t-37.5 102.5v83l128 54z" />
    <glyph glyph-name="network_route" unicode="network_route" horiz-adv-x="427" 
d="M427 15v-42h-128v-22h-171v22h-128v42h128v22h64v42h43v-42h149h-85v-22h128zM215 430q70 0 119.5 -49.5t49.5 -119.5t-49.5 -119.5t-119.5 -49.5q-46 0 -85 22.5t-61.5 61.5t-22.5 85q0 70 49.5 119.5t119.5 49.5zM332 329q-25 43 -73 60q15 -28 23 -60h50zM215 396
q-22 -32 -32 -67h64q-11 35 -32 67zM84 227h57q-2 20 -2 34t2 34h-57q-4 -18 -4 -34t4 -34zM98 193q25 -44 73 -60q-15 28 -23 60h-50zM148 329q8 32 23 60q-48 -17 -73 -60h50zM215 126q21 31 32 67h-64q10 -36 32 -67zM255 227q2 20 2 34t-2 34h-80q-2 -20 -2 -34t2 -34
h80zM259 133q48 16 73 60h-50q-8 -32 -23 -60zM289 227h57q4 18 4 34t-4 34h-57q2 -20 2 -34t-2 -34z" />
    <glyph glyph-name="network" unicode="network" 
d="M256 363q71 0 121 -50t50 -121t-50 -121t-121 -50t-121 50t-50 121t50 121t121 50zM128 192q0 -48 32 -84t79 -43v25q-14 0 -24 10t-10 24v17l-75 74q-2 -11 -2 -23zM324 124q19 0 29 -16q31 36 31 84q0 26 -10 49.5t-27 41t-40 26.5q-1 -13 -10.5 -22.5t-23.5 -9.5h-34
v-34q0 -7 -5 -12t-12 -5h-34v-34h102q7 0 12 -5t5 -12v-51h17zM277 426.5q0 -5.5 -2.5 -10.5t-7.5 -8t-11 -3q-9 0 -15 6.5t-6 15t6 15t15 6.5q6 0 11 -3t7.5 -8t2.5 -10.5zM384 405.5q0 -8.5 -6.5 -15t-15 -6.5t-15 6.5t-6.5 15t6.5 15t15 6.5t15 -6.5t6.5 -15zM469 320
q0 -9 -6 -15t-15 -6q-6 0 -11 2.5t-7.5 7.5t-2.5 11q0 9 6 15t15 6t15 -6t6 -15zM512 192q0 -9 -6.5 -15t-14.5 -6q-6 0 -11 2.5t-8 7.5t-3 11q0 9 6.5 15t15 6t15 -6t6.5 -15zM469 64q0 -9 -6 -15t-15 -6t-15 6t-6 15t6 15t15 6t15 -6t6 -15zM384 -21.5q0 -8.5 -6.5 -15
t-15 -6.5t-15 6.5t-6.5 15t6.5 15t15 6.5t15 -6.5t6.5 -15zM277 -43q0 -5 -2.5 -10t-7.5 -8t-11 -3q-9 0 -15 6.5t-6 15t6 15t15 6.5t15 -6.5t6 -15.5zM171 -21q0 -6 -3 -11t-8 -8t-11 -3q-8 0 -14.5 6.5t-6.5 15t6.5 15t15 6.5t15 -6.5t6.5 -14.5zM85 64q0 -9 -6 -15
t-15 -6t-15 6t-6 15t6 15t15 6t15 -6t6 -15zM43 192q0 -9 -6.5 -15t-15.5 -6q-5 0 -10 2.5t-8 7.5t-3 11q0 9 6.5 15t15 6t15 -6t6.5 -15zM85 320q0 -9 -6 -15t-15 -6t-15 6t-6 15t6 15t15 6t15 -6t6 -15zM171 405.5q0 -8.5 -6.5 -15t-15 -6.5t-15 6.5t-6.5 14.5q0 6 3 11
t8 8t10 3q9 0 15.5 -6.5t6.5 -15z" />
    <glyph glyph-name="node" unicode="node" horiz-adv-x="384" 
d="M171 384q0 9 6 15t15 6t15 -6t6 -15t-6 -15t-15 -6t-15 6t-6 15zM341 277q0 9 6.5 15.5t15.5 6.5t15 -6.5t6 -15.5t-6 -15t-15 -6t-15.5 6t-6.5 15zM341 107q0 9 6.5 15t15.5 6t15 -6t6 -15q0 -6 -3 -11t-8 -8t-10 -3q-9 0 -15.5 6.5t-6.5 15.5zM0 277q0 9 6 15.5t15 6.5
t15.5 -6.5t6.5 -15.5t-6.5 -15t-15.5 -6t-15 6t-6 15zM0 107q0 9 6 15t15 6t15.5 -6t6.5 -15t-6.5 -15.5t-15.5 -6.5t-15 6.5t-6 15.5zM363 149q-18 0 -30.5 -12.5t-12.5 -29.5t11 -29l-102 -57q-9 16 -26 20v110q9 2 16 8t11.5 14.5t4.5 18.5q0 18 -12.5 30.5t-30.5 12.5
t-30.5 -12.5t-12.5 -30.5q0 -15 9 -26.5t23 -14.5v-110q-17 -4 -26 -20l-102 57q11 12 11 29t-12.5 29.5t-29.5 12.5h-1v86q18 0 30.5 12.5t12.5 29.5t-11 29l102 57q12 -22 37 -22t37 22l102 -57q-11 -12 -11 -29t12.5 -29.5t29.5 -12.5h1v-86zM171 0q0 9 6 15t15 6t15 -6
t6 -15t-6 -15t-15 -6t-15 6t-6 15zM171 192q0 9 6 15t15 6t15 -6t6 -15t-6 -15t-15 -6t-15 6t-6 15z" />
    <glyph glyph-name="openshift" unicode="openshift" horiz-adv-x="494" 
d="M452 193l33 12l0.5 -5t0.5 -8q0 -95 -67.5 -162.5t-162.5 -67.5v-1q-55 0 -103 24.5t-80 66.5l-33 -12q-28 36 -40 81l65 24q-5 20 -7 39l-32 -12q-1 12 -1 20q0 95 67.5 162.5t163.5 67.5q56 0 105.5 -25.5t80.5 -69.5l32 11q12 -16 20 -34l-64 -24q20 -41 22 -87z
M376 180q0 39 -19 73l65 24q-10 18 -24 33l-32 -12q-45 48 -110 48q-61 0 -105.5 -42.5t-47.5 -102.5l31 11v-8q0 -16 3 -32l-65 -24q10 -47 45 -79l33 12q45 -43 106 -43q59 0 103 40t49 99l-33 -13q1 8 1 16z" />
    <glyph glyph-name="organisms" unicode="organisms" horiz-adv-x="470" 
d="M438 213q13 0 22.5 -9t9.5 -22.5t-9.5 -23t-22.5 -9.5q-4 0 -8 1l-32 -55q8 -9 8 -21q0 -13 -9.5 -22t-22.5 -9q-23 0 -30 21h-47q-7 -21 -30 -21q-4 0 -7 1l-32 -56q7 -9 7 -20q0 -13 -9.5 -22.5t-22.5 -9.5q-23 0 -30 21h-47q-7 -21 -30 -21q-13 0 -22.5 9.5t-9.5 22.5
q0 11 8 20l-33 56q-3 -1 -7 -1q-13 0 -22.5 9t-9.5 22.5t9.5 23t22.5 9.5q4 0 7 -1l32 56q-7 8 -7 19.5t8 19.5l-33 56q-3 -1 -7 -1q-13 0 -22.5 9.5t-9.5 22.5t9.5 22.5t22.5 9.5q4 0 7 -1l32 56q-7 9 -7 20q0 13 9.5 22.5t22.5 9.5q23 0 30 -22h47q7 22 30 22
q13 0 22.5 -9.5t9.5 -22.5q0 -11 -7 -20l32 -56q4 1 7 1q23 0 30 -21h47q7 21 30 21q13 0 22.5 -9.5t9.5 -22.5q0 -11 -7 -20l32 -55h7zM374 107q3 0 6 -1l32 56q-6 8 -6 19.5t7 19.5l-32 56q-4 -1 -7 -1q-23 0 -30 21h-47q-7 -21 -30 -21q-4 0 -7 1l-32 -56q7 -8 7 -20
q0 -11 -7 -19l32 -56q4 1 7 1q23 0 30 -22h47q7 22 30 22zM203 0q3 0 7 -1l32 56q-7 9 -7 20t7 19l-32 56q-4 -1 -7 -1q-23 0 -30 22h-47q-7 -22 -30 -22q-3 0 -7 1l-32 -56q7 -8 7 -19t-7 -20l33 -56q3 1 6 1q23 0 30 -21h47q7 21 30 21zM57 308q7 -9 7 -20t-7 -20l33 -55
h6q23 0 30 -21h47q7 21 30 21h7l32 55q-7 9 -7 20t7 20l-32 55h-7q-23 0 -30 21h-47q-7 -21 -30 -21h-7z" />
    <glyph glyph-name="organization" unicode="organization" horiz-adv-x="428" 
d="M385 214h11v-86h-43v43h-117v-43h-43v43h-118v-43h-43v86h12h31h118v42h43v-42h117h32zM161 352q0 22 15.5 37.5t37.5 15.5t38 -15.5t16 -37.5t-16 -38t-38 -16t-37.5 16t-15.5 38zM0 32q0 22 15.5 38t37.5 16t38 -16t16 -38t-16 -37.5t-38 -15.5t-37.5 15.5t-15.5 37.5z
M161 32q0 22 15.5 38t37.5 16t38 -16t16 -38t-16 -37.5t-38 -15.5t-37.5 15.5t-15.5 37.5zM321 32q0 22 15.5 38t37.5 16t38 -16t16 -38t-16 -37.5t-38 -15.5t-37.5 15.5t-15.5 37.5z" />
    <glyph glyph-name="outbound" unicode="outbound" horiz-adv-x="427" 
d="M384 405q18 0 30.5 -12.5t12.5 -29.5v-192h-43v149l-171 -107l-170 107v-213h170v-43h-170q-18 0 -30.5 12.5t-12.5 30.5v256q0 17 12.5 29.5t30.5 12.5h341zM213 256l171 107h-341zM427 85l-86 -85v64h-85v43h85v64z" />
    <glyph glyph-name="package_upgrade" unicode="package_upgrade" horiz-adv-x="427" 
d="M336 144l-144 -144h-107q-17 0 -29.5 12.5t-12.5 30.5v234h-43v43h427v-43h-43v-181zM85 107v-43h107v43h-107zM427 10l-30 -30l-61 60l-60 -60l-30 30l90 90l31 -30z" />
    <glyph glyph-name="package" unicode="package" horiz-adv-x="427" 
d="M0 320h427v-43h-43v-234q0 -18 -12.5 -30.5t-30.5 -12.5h-256q-17 0 -29.5 12.5t-12.5 30.5v234h-43v43zM192 64v43h-107v-43h107z" />
    <glyph glyph-name="packages" unicode="packages" horiz-adv-x="427" 
d="M385 320v-43h-267h-74v43h341zM342 405v-43h-201h-55v43h256zM0 235h427v-43h-43v-171q0 -11 -5.5 -21t-15.5 -15.5t-22 -5.5h-256q-11 0 -21 5.5t-15.5 15.5t-5.5 21v171h-43v43zM192 43v42h-107v-42h107z" />
    <glyph glyph-name="patch_fixes" unicode="patch_fixes" horiz-adv-x="341" 
d="M224 49l41 -42q-43 -28 -94 -28q-71 0 -121 50t-50 120v1q0 107 69 189l-1 -8v-2q0 -32 23 -54.5t55 -22.5q30 0 51.5 21.5t21.5 52.5q0 2 -1 5q-2 52 -15 103q64 -51 101 -125.5t37 -159.5q0 -53 -30 -97l-41 41q7 17 7 35q0 35 -25 60t-60 25q-17 0 -33 -6l56 -56
l-46 -46l-56 56q-6 -16 -6 -33q0 -23 11.5 -42.5t31 -31t42.5 -11.5q16 0 32 6z" />
    <glyph glyph-name="patterns" unicode="patterns" horiz-adv-x="470" 
d="M0 362.5q0 26.5 19 45t45.5 18.5t45 -18.5t18.5 -45t-18.5 -45.5t-45 -19t-45.5 19t-19 45.5zM299 191.5q0 -20.5 -12 -37t-31 -23.5v-50q19 -7 31 -23.5t12 -37.5q0 -26 -19 -44.5t-45 -18.5q-21 0 -37.5 11.5t-22.5 30.5h-51q-4 -12 -13 -21.5t-21.5 -15t-25.5 -5.5
q-27 0 -45.5 18.5t-18.5 44.5q0 21 12 37.5t31 23.5v50q-19 7 -31 23.5t-12 37.5q0 26 19 45t45.5 19t45 -19t18.5 -45q0 -21 -12 -37.5t-31 -23.5v-50q29 -11 39 -39h51q10 29 39 39v50q-19 7 -31 23.5t-12 36.5q0 14 5.5 26.5t15 21t22.5 13.5v50q-19 7 -31 23.5t-12 37.5
q0 26 18.5 44.5t45.5 18.5q20 0 36.5 -11.5t23.5 -30.5h50q4 9 9.5 17t13.5 13.5t17.5 8.5t20.5 3q26 0 44.5 -18.5t18.5 -44.5q0 -21 -11.5 -37.5t-30.5 -23.5v-50q12 -5 22 -13.5t15.5 -21t5.5 -26.5q0 -26 -19 -45t-45.5 -19t-45.5 19t-19 45q0 21 12 37.5t31 22.5v51
q-29 10 -39 39h-50q-10 -28 -39 -39v-50q19 -7 31 -23.5t12 -37zM341 20.5q0 26.5 19 45.5t45.5 19t45 -19t18.5 -45.5t-18.5 -45t-45 -18.5t-45.5 18.5t-19 45z" />
    <glyph glyph-name="persistent_volume" unicode="persistent_volume" horiz-adv-x="427" 
d="M384 427q18 0 30.5 -12.5t12.5 -30.5v-341q0 -12 -5.5 -22t-15.5 -15.5t-22 -5.5h-50q8 20 8 43q0 53 -37.5 90.5t-90.5 37.5q-35 0 -64 -18q-11 6 -22 10v221q0 18 12.5 30.5t30.5 12.5h213zM150 384q0 -9 6 -15t15 -6q6 0 11 2.5t7.5 7.5t2.5 11t-2.5 11t-7.5 7.5
t-11 2.5q-9 0 -15 -6t-6 -15zM278 171q44 0 75.5 31t31.5 75t-31.5 75.5t-75.5 31.5q-29 0 -53.5 -14.5t-39 -39t-14.5 -53.5q0 -22 9 -42h55v-55q21 -9 43 -9zM384.5 21q8.5 0 15 6.5t6.5 15t-6.5 15t-15 6.5t-15 -6.5t-6.5 -15t6.5 -15t15 -6.5zM384.5 363q8.5 0 15 6
t6.5 15t-6.5 15t-15.5 6q-5 0 -10 -2.5t-8 -7.5t-3 -11q0 -9 6.5 -15t15 -6zM214 -43q-39 0 -64 30q-21 24 -22 56q0 17 -12.5 29.5t-30 12.5t-30 -12.5t-12.5 -30t12.5 -30t30.5 -12.5q9 0 17 4q6 -21 19 -38q-17 -9 -36 -9h-1q-35 0 -60 25t-25 60.5t25 60.5t60 25
q39 0 65 -29q21 -24 21 -56q0 -18 12.5 -30.5t30 -12.5t30 12.5t12.5 30t-12.5 30t-29.5 12.5q-9 0 -17 -3q-7 20 -20 37q17 9 37 9q35 0 60 -25t25 -60.5t-25 -60.5t-60 -25zM235 277.5q0 17.5 12.5 30t30 12.5t30 -12.5t12.5 -30t-12.5 -30t-30 -12.5t-30 12.5t-12.5 30z
" />
    <glyph glyph-name="pin" unicode="pin" horiz-adv-x="404" 
d="M347 239l30 -30l-75 -76l102 -101l-30 -31l-102 102l-76 -75l-30 30v60l-121 121l-15 -15l-30 30l151 151l30 -30l-15 -15l121 -121h60z" />
    <glyph glyph-name="pod_autoscaler" unicode="pod_autoscaler" 
d="M128 48v16h256v-21q0 -18 -12.5 -30.5t-30.5 -12.5h-170q-18 0 -30.5 12.5t-12.5 30.5v5zM320 363v-22h-128v22q0 4 2 8q5 13 19 13h86q9 0 15 -6t6 -15zM347 261l26 -58l27 -59l27 -59h-342l27 59l27 59l26 58l27 59h128zM273 174q26 11 26 39q0 18 -12.5 30.5t-30 12.5
t-30.5 -12.5t-13 -30t12.5 -30.5t30.5 -13q9 0 17 4zM437 157v14h-32v42h32v54l19 -19l19 -19l18 -18l19 -19l-19 -19l-18 -18l-19 -19l-19 -19v40zM75 171v-54l-19 19l-19 19l-18 18l-19 19l19 19l18 18l19 19l19 19v-54h32v-42h-32z" />
    <glyph glyph-name="pod_security" unicode="pod_security" horiz-adv-x="427" 
d="M235 362h-129v22q0 9 6.5 15t15.5 6h85q9 0 15.5 -6t6.5 -15v-22zM213 107h-213l53 117l54 117h128l27 -61l28 -61l-38 -17l-39 -17v-78zM213 234.5q0 17.5 -12.5 30t-30 12.5t-30 -12.5t-12.5 -30t12.5 -30t30 -12.5t30 12.5t12.5 30zM215 85q3 -17 9 -33t16 -31h-155
q-17 0 -29.5 12.5t-12.5 30.5v21h172zM427 171v-64q-1 -45 -28 -81q-12 -18 -29.5 -30t-38.5 -17q-43 11 -69 47q-27 36 -27 81v64l48 21l48 21l48 -21zM331 190l-38 -17l-37 -16v-61h75v-95q30 10 50 36t24 59h-74v94z" />
    <glyph glyph-name="pod" unicode="pod" horiz-adv-x="341" 
d="M43 43v21h256v-21q0 -18 -12.5 -30.5t-30.5 -12.5h-171q-11 0 -21 5.5t-15.5 15.5t-5.5 22zM235 363v-22h-128v22q0 9 6 15t15 6h85q9 0 15.5 -6t6.5 -15zM235 320l106 -235h-341l107 235h128zM171 170q18 0 30.5 12.5t12.5 30.5t-12.5 30.5t-30.5 12.5t-30.5 -12.5
t-12.5 -30.5t12.5 -30.5t30.5 -12.5z" />
    <glyph glyph-name="primitive" unicode="primitive" horiz-adv-x="425" 
d="M166 192q0 19 13.5 33t33 14t33 -14t13.5 -33t-13.5 -33t-33 -14t-33 14t-13.5 33zM418 311q26 -46 -37 -119q63 -73 37 -119q-19 -32 -75 -32q-13 0 -27 2q-9 1 -20 3q-15 -41 -36.5 -65t-47 -24t-47 24t-36.5 66q-23 -5 -47 -6q-57 0 -75 32q-26 46 37 119
q-63 73 -37 118.5t122 26.5q10 28 22.5 48t28.5 31t33 11q25 0 46.5 -24t36.5 -65q11 2 20 3q79 10 102 -30zM319 317q-3 0 -9 -1.5t-7 -1.5q8 -31 12 -63q26 -19 49 -41q51 58 33 89q-12 20 -53 20q-13 0 -25 -2zM253.5 121.5q20.5 11.5 38.5 24.5q2 23 2 46t-2 46
q-18 13 -39 25q-18 11 -41 21q-21 -10 -40 -21q-20 -12 -39 -25q-2 -23 -2 -46t2 -46q19 -13 39 -25q19 -11 41 -21q20 10 40.5 21.5zM288 114q-12 -7 -22.5 -13.5t-23.5 -12.5q19 -7 38 -13q5 19 8 39zM183 88q-13 6 -23 12q-11 7 -23 14q3 -20 8 -39q19 5 38 13zM107 165
v27v27q-15 -13 -29 -27q14 -14 29 -27zM137 270q12 7 23 14q10 6 23 12q-18 8 -38 13q-5 -20 -8 -39zM242 296q13 -6 23.5 -12.5t22.5 -13.5q-3 20 -8 39q-19 -6 -38 -13zM318 219v-27v-27q15 13 29 27q-14 14 -29 27zM213 403q-16 0 -32 -19t-28 -52q30 -9 59 -22
q30 13 60 22q-12 33 -27.5 52t-31.5 19zM28 299q-17 -31 33 -89q23 22 49 41q4 32 12 63q-20 4 -40 4q-43 0 -54 -19zM28 85.5q17 -30.5 94 -15.5q-8 31 -12 63q-26 19 -49 41q-50 -58 -33 -88.5zM213 -19q16 0 31.5 19t27.5 52q-30 9 -59 22q-30 -13 -60 -22q12 -33 28 -52
t32 -19zM397 85q18 31 -33 89q-23 -22 -49 -41q-4 -32 -12 -63q1 0 7 -1.5t9 -1.5q63 -8 78 18z" />
    <glyph glyph-name="product_classes" unicode="product_classes" horiz-adv-x="427" 
d="M107 405q5 0 10 -2.5t8 -7.5t3 -11v-384q0 -9 -6.5 -15t-14.5 -6h-86q-8 0 -14.5 6t-6.5 15v384q0 9 6.5 15t14.5 6h86zM64 0q18 0 30.5 12.5t12.5 30t-12.5 30t-30.5 12.5t-30.5 -12.5t-12.5 -30t12.5 -30t30.5 -12.5zM107 192v192h-86v-192h86zM43 42.5q0 8.5 6 15
t15 6.5t15.5 -6.5t6.5 -15t-6.5 -15t-15.5 -6.5t-15 6.5t-6 15zM171 405h107v-149v-43h-107v43v149zM320 405h107v-149v-43h-107v43v149zM171 171h107v-150v-42h-107v42v150zM320 171h107v-150v-42h-107v42v150z" />
    <glyph glyph-name="product_subscriptions" unicode="product_subscriptions" horiz-adv-x="427" 
d="M384 277h-341v43h341v-43zM341 405v-42h-256v42h256zM427 192v-171q0 -17 -12.5 -29.5t-30.5 -12.5h-341q-18 0 -30.5 12.5t-12.5 29.5v171q0 12 5.5 21.5t15.5 15.5t22 6h341q18 0 30.5 -12.5t12.5 -30.5zM254 84l50 43l-65 5l-26 60l-25 -60l-65 -5l49 -43l-15 -63
l56 34l56 -34z" />
    <glyph glyph-name="products_classes" unicode="products_classes" horiz-adv-x="469" 
d="M106.5 107q17.5 0 30 -12.5t12.5 -30.5t-12.5 -30.5t-30 -12.5t-30 12.5t-12.5 30.5t12.5 30.5t30 12.5zM106.5 43q8.5 0 15 6t6.5 15t-6.5 15t-15 6t-15 -6t-6.5 -15t6.5 -15t15 -6zM64 170v192h86v-192h-86zM448 427q9 0 15 -6.5t6 -15.5v-426q0 -9 -6 -15.5t-15 -6.5
h-427q-8 0 -14.5 6.5t-6.5 15.5v426q0 9 6.5 15.5t14.5 6.5h427zM171 149v214q0 8 -6.5 14.5t-15.5 6.5h-85q-9 0 -15 -6.5t-6 -14.5v-342q0 -8 6 -14.5t15 -6.5h85q9 0 15.5 6.5t6.5 14.5v128zM299 0v43h-86v-43h86zM299 64v107h-86v-107h86zM299 213v43h-86v-43h86z
M299 277v107h-86v-107h86zM427 0v43h-86v-43h86zM427 64v107h-86v-107h86zM427 213v43h-86v-43h86zM427 277v107h-86v-107h86z" />
    <glyph glyph-name="products" unicode="products" horiz-adv-x="427" 
d="M107 405q5 0 10 -2.5t8 -7.5t3 -11v-384q0 -9 -6.5 -15t-14.5 -6h-86q-8 0 -14.5 6t-6.5 15v384q0 9 6.5 15t14.5 6h86zM64 0q18 0 30.5 12.5t12.5 30t-12.5 30t-30.5 12.5t-30.5 -12.5t-12.5 -30t12.5 -30t30.5 -12.5zM107 192v192h-86v-192h86zM85 42.5q0 -8.5 -6 -15
t-15 -6.5t-15 6.5t-6 15t6 15t15 6.5t15 -6.5t6 -15zM256 405q9 0 15 -6t6 -15v-384q0 -6 -2.5 -11t-7.5 -7.5t-11 -2.5h-85q-9 0 -15.5 6t-6.5 15v384q0 9 6.5 15t15.5 6h85zM213.5 0q17.5 0 30 12.5t12.5 30t-12.5 30t-30 12.5t-30 -12.5t-12.5 -30t12.5 -30t30 -12.5z
M256 192v192h-85v-192h85zM235 42.5q0 -8.5 -6.5 -15t-15.5 -6.5q-5 0 -10 3t-8 8t-3 11q0 8 6.5 14.5t15 6.5t15 -6.5t6.5 -15zM405 405q9 0 15.5 -6t6.5 -15v-384q0 -9 -6.5 -15t-15.5 -6h-85q-9 0 -15 6t-6 15v384q0 9 6 15t15 6h85zM362.5 0q17.5 0 30 12.5t12.5 30.5
q0 11 -5.5 21t-15.5 15.5t-21 5.5q-18 0 -30.5 -12.5t-12.5 -30t12.5 -30t30 -12.5zM405 192v192h-85v-192h85zM384 42.5q0 -8.5 -6.5 -15t-15 -6.5t-15 6.5t-6.5 15t6.5 15t15 6.5t15 -6.5t6.5 -15z" />
    <glyph glyph-name="project" unicode="project" horiz-adv-x="384" 
d="M341 363q18 0 30.5 -12.5t12.5 -30.5v-299q0 -17 -12.5 -29.5t-30.5 -12.5h-298q-18 0 -30.5 12.5t-12.5 29.5v299q0 18 12.5 30.5t30.5 12.5h89q6 19 22.5 30.5t37.5 11.5t37.5 -11.5t22.5 -30.5h89zM192 363q-9 0 -15 -6.5t-6 -15.5q0 -4 1.5 -8t4.5 -7t7 -4.5t8 -1.5
q9 0 15 6.5t6 15t-6 15t-15 6.5zM149 256l-85 -85l30 -30l55 55l60 -60l84 84l27 -28v85h-85l28 -27l-54 -54zM341 43v42h-298v-42h298z" />
    <glyph glyph-name="proxy" unicode="proxy" horiz-adv-x="406" 
d="M278 248q13 -15 18 -35h46v43l64 -64l-64 -64v43h-46q-5 -19 -18 -34l97 -98l31 30v-90h-91l30 30l-103 103q-14 -5 -29 -5q-20 0 -37 8t-28.5 22.5t-16.5 33.5h-51q-13 -22 -37 -22q-18 0 -30.5 12.5t-12.5 30.5t12.5 30.5t30.5 12.5q24 0 37 -22h51q7 28 30 46t52 18
q15 0 29 -5l103 103l-30 30h91v-90l-31 30z" />
    <glyph glyph-name="quota" unicode="quota" horiz-adv-x="469" 
d="M235 192h192v-21q0 -89 -62.5 -151.5t-151 -62.5t-151 62.5t-62.5 151t62.5 151t150.5 62.5h22v-192zM277 235v192q80 0 136 -56.5t56 -135.5h-192z" />
    <glyph glyph-name="replica_set" unicode="replica_set" horiz-adv-x="448" 
d="M405 171q18 0 30.5 -12.5t12.5 -30.5v-128q0 -18 -12.5 -30.5t-30.5 -12.5h-128q-17 0 -29.5 12.5t-12.5 30.5v128q0 18 12.5 30.5t29.5 12.5h128zM405 0v128h-128v-128h128zM299 299v-86h-43v86h-128v-128h64v-43h-64q-18 0 -30.5 12.5t-12.5 30.5v128q0 17 12.5 29.5
t30.5 12.5h128q18 0 30.5 -12.5t12.5 -29.5zM43 256h-43v128q0 18 12.5 30.5t30.5 12.5h128v-43h-128v-128z" />
    <glyph glyph-name="replica" unicode="replica" horiz-adv-x="363" 
d="M320 213q18 0 30.5 -12.5t12.5 -29.5v-128q0 -18 -12.5 -30.5t-30.5 -12.5h-128q-18 0 -30.5 12.5t-12.5 30.5v128q0 17 12.5 29.5t30.5 12.5h128zM320 43v128h-128v-128h128zM171 384q17 0 29.5 -12.5t12.5 -30.5v-85h-42v85h-128v-128h64v-42h-64q-18 0 -30.5 12.5
t-12.5 29.5v128q0 18 12.5 30.5t30.5 12.5h128z" />
    <glyph glyph-name="repositories" unicode="repositories" horiz-adv-x="341" 
d="M85 -43v86h107v-86l-53 32zM85 299v42h43v-42h-43zM85 192v43h43v-43h-43zM85 85v43h43v-43h-43zM306 426q15 -3 25 -15t10 -27v-341q0 -18 -12.5 -30.5t-29.5 -12.5h-64v43h64v341h-256v-384q-18 0 -30.5 12.5t-12.5 30.5v341q0 18 12.5 30.5t30.5 12.5h256q4 0 7 -1z
" />
    <glyph glyph-name="resource" unicode="resource" horiz-adv-x="384" 
d="M363 235h21v-43h-43v-21q0 -50 -30 -90t-76 -53v-49h-86v49q-46 13 -76 53t-30 90v21h-43v43h85v170h43v-170h128v170h43v-170h64z" />
    <glyph glyph-name="role_binding" unicode="role_binding" horiz-adv-x="491" 
d="M299 64h85v-43h-85v43zM406 128q23 0 42.5 -11.5t31 -31t11.5 -42.5q0 -36 -25 -61t-60 -25h-43v43h43q17 0 29.5 12.5t12.5 29.5q0 18 -12.5 30.5t-29.5 12.5h-43v43h43zM235 43v0q0 -18 12 -30.5t30 -12.5h43v-43h-43q-35 0 -60 25t-25 60v1q0 35 25 60t60 25h43v-43
h-43q-18 0 -30 -12t-12 -30zM150 42.5q0 -5.5 1 -10.5q0 -5 1 -11h-109q-18 0 -30.5 12.5t-12.5 30.5v299q0 17 12.5 29.5t30.5 12.5h89q7 19 23 31t37 12t37 -12t23 -31h89q12 0 22 -5.5t15.5 -15.5t5.5 -21v-192h-106v-1q-15 0 -29 -3t-27 -10q-9 2 -16.5 2.5t-13.5 0.5
q-42 -1 -80 -17q-48 -20 -48 -49v-30h88q-1 -6 -1 -11q-1 -5 -1 -10.5zM192 405q-9 0 -15 -6t-6 -15t6 -15t15 -6t15 6t6 15q0 6 -2.5 11t-7.5 7.5t-11 2.5zM191.5 320q-26.5 0 -45 -18.5t-18.5 -45.5q0 -17 8.5 -32t23.5 -23.5t32 -8.5q26 0 45 19t19 45.5t-19 45
t-45.5 18.5z" />
    <glyph glyph-name="route" unicode="route" horiz-adv-x="405" 
d="M64 352q26 0 44.5 -18.5t18.5 -45.5q0 -21 -16 -50.5t-32 -48.5l-15 -19q-8 8 -18.5 21t-28 44.5t-17.5 52.5q0 27 18.5 45.5t44.5 18.5h1zM63.5 266q9.5 0 16 6.5t6.5 16t-6.5 16t-15.5 6.5q-7 0 -12 -3t-8 -8t-3 -12q0 -9 6.5 -15.5t16 -6.5zM384 207q21 -12 21 -37
q0 -17 -12.5 -29.5t-30.5 -12.5q-12 0 -21.5 5.5t-15.5 15.5t-6 21q0 25 22 37v92q0 26 -18.5 45t-45.5 19q-26 0 -44.5 -18t-19.5 -44v-5v-40v-171v-21q0 -35 -25 -60t-60.5 -25t-60.5 25t-25 60v42h43v-41v-0.5v-0.5q0 -17 12.5 -29.5t30 -12.5t30 12.5t12.5 29.5v1v20
v192v19v5q2 43 33 73t74 30q36 0 64.5 -21.5t37.5 -55.5q4 -14 5 -28v-92z" />
    <glyph glyph-name="sandbox" unicode="sandbox" horiz-adv-x="393" 
d="M118 256q0 9 6.5 15.5t15 6.5t15 -6.5t6.5 -15.5t-6.5 -15t-15 -6t-15 6t-6.5 15zM150 192q0 9 6.5 15.5t15 6.5t15 -6.5t6.5 -15.5t-6.5 -15t-15 -6t-15 6t-6.5 15zM86 192q0 6 3 11t8 8t11 3q8 0 14.5 -6.5t6.5 -15.5t-6.5 -15t-15 -6t-15 6t-6.5 15zM341 251l43 43
v-251q0 -18 -12.5 -30.5t-30.5 -12.5h-298q-18 0 -30.5 12.5t-12.5 30.5v298q0 18 12.5 30.5t30.5 12.5h251l-43 -43h-208v-213h85q0 -26 19 -45t45 -19t45 19t19 45h85v123zM299 233q5 -7 2.5 -14t-10.5 -11l-27 -16v0q0 15 -10.5 25.5t-24.5 10.5h-1q-6 0 -12 -3
q-10 21 -32 25l25 41q4 8 11 10t13 -4l17 -16l-6 -6l31 -30l6 5zM275 245l-31 30l6 6l112 112l31 -30l-113 -113z" />
    <glyph glyph-name="sap" unicode="sap" horiz-adv-x="427" 
d="M323 231q24 0 24 -18q0 -19 -24 -19h-10v37h10zM213 216h1l15 -46q-7 -2 -15 -2q-7 0 -14 3zM213.5 405q88.5 0 151 -62.5t62.5 -150.5t-62.5 -150.5t-151 -62.5t-151 62.5t-62.5 150.5t62.5 150.5t151 62.5zM327 163q27 0 42 12.5t15 35.5q0 50 -64 50h-45v-109l-40 109
h-42l-34 -91q-2 11 -10.5 18.5t-15.5 11t-20 7.5q-25 8 -25 16q0 9 21 9q18 0 34 -9l15 28q-24 12 -51 12h-3q-24 0 -42 -17q-10 -10 -11 -25v-2q0 -19 16 -30q14 -9 31 -14q23 -7 23 -15q-1 -4 -3 -7q-6 -4 -13 -4h-2h-3q-19 0 -35 10l-14 -28q24 -13 52 -13h2h1
q22 0 38 13q1 1 2 1l-5 -12h42l7 21q12 -3 24 -3h1q12 0 23 3l7 -21h68v43h14z" />
    <glyph glyph-name="secure_data" unicode="secure_data" horiz-adv-x="469" 
d="M283 128h-155v-43h134q-6 -12 -6 -25v-18h-213q-12 0 -22 6t-15.5 16t-5.5 21v299q0 17 12.5 29.5t30.5 12.5h341q18 0 30.5 -12.5t12.5 -29.5v-180q-21 9 -43 9h-171v-43h86q-13 -19 -16 -42zM384 256v42h-171v-42h171zM128 384v-43h256v43h-256zM85 85v43h-43v-43h43z
M85 341v43h-43v-43h43zM128 298v-42h43v42h-43zM128 170h43v43h-43v-43zM444 85q10 -1 17.5 -9t7.5 -19v-74q-1 -11 -9 -18.5t-18 -7.5h-118q-11 1 -18 9t-7 19v74q0 7 3.5 13t9 9.5t12.5 3.5v32q3 23 20 38t40 15t40 -15t20 -38v-32zM416 85v32q-1 12 -9.5 20t-19.5 8h-3
h-3q-7 0 -14 -3.5t-11 -10t-4 -14.5v-32h64z" />
    <glyph glyph-name="service_instance" unicode="service_instance" horiz-adv-x="384" 
d="M0 0v64v64h22h21v-64v-64h-21h-22zM202 -21l-63 13l-62 14q-13 3 -13 15v86q0 5 4 10q3 4 9 5l102 13l102 14l3 -11l3 -12q0 -13 -12 -19l-42 -11l-43 -11l35 -14l34 -13l49 13l47 14q2 1 5 1q4 0 8 -2q6 -4 7 -10l4 -16l5 -17v-4q0 -12 -12 -15l-77 -21l-78 -22
q-4 -1 -8 -1h-2q-3 0 -5 1zM320 267l-74 -48l-75 -48v96v96l75 -48z" />
    <glyph glyph-name="service_plan" unicode="service_plan" horiz-adv-x="427" 
d="M107 405q5 0 10 -2.5t8 -7.5t3 -11v-384q0 -9 -6.5 -15t-14.5 -6h-86q-8 0 -14.5 6t-6.5 15v384q0 9 6.5 15t14.5 6h86zM64 0q18 0 30.5 12.5t12.5 30t-12.5 30t-30.5 12.5t-30.5 -12.5t-12.5 -30t12.5 -30t30.5 -12.5zM107 192v192h-86v-192h86zM43 42.5q0 8.5 6 15
t15 6.5t15.5 -6.5t6.5 -15t-6.5 -15t-15.5 -6.5t-15 6.5t-6 15zM256 362v43h171v-43h-171zM171 362v43h43v-43h-43zM256 277v43h171v-43h-171zM171 277v43h43v-43h-43zM256 192v43h171v-43h-171zM171 192v43h43v-43h-43z" />
    <glyph glyph-name="service_square" unicode="service_square" horiz-adv-x="502" 
d="M492 166q12 -14 10 -29q0 -18 -11 -29l-96 -101h-227l-63 -62l-105 106l71 70l43 43h162q18 0 30.5 -12.5t12.5 -30.5q0 -6 -3 -14h58l60 59q12 12 29 12t29 -12zM40 50l65 -66l32 32l-66 65zM471 128q4 4 4 8.5t-4 8.5q-11 8 -19 0l-67 -67h-152v29h44q6 0 9.5 4t3.5 10
q0 14 -14 14h-151l-33 -34l66 -65h226zM165 203v211h211v-211h-211z" />
    <glyph glyph-name="service" unicode="service" horiz-adv-x="502" 
d="M492 166q12 -14 10 -29q0 -18 -11 -29l-96 -101h-227l-63 -62l-105 106l71 70l43 43h162q18 0 30.5 -12.5t12.5 -30.5q0 -6 -3 -14h58l60 59q12 12 29 12t29 -12zM40 50l65 -66l32 32l-66 65zM471 128q4 4 4 8.5t-4 8.5q-11 8 -19 0l-67 -67h-152v29h44q6 0 9.5 4t3.5 10
q0 14 -14 14h-151l-33 -34l66 -65h226zM465 267q7 -12 19 -19l-27 -46q-19 11 -39.5 5.5t-31.5 -24.5q-7 -12 -7 -26h-54q0 22 -15 37t-37 15q-14 0 -26 -7l-27 47q19 10 24.5 31t-4.5 40q-7 12 -20 19l27 46q19 -11 40 -5.5t31 24.5q7 12 7 26h54q0 -14 7 -26t19 -19t26 -7
t26 7l27 -46q-19 -11 -24.5 -32t5.5 -40zM352 238q23 0 39.5 16.5t16.5 39.5q0 15 -7.5 27.5t-20.5 20t-28 7.5q-23 0 -39 -16t-16 -39t16 -39.5t39 -16.5z" />
    <glyph glyph-name="smt" unicode="smt" horiz-adv-x="427" 
d="M85 -43v86h107v-86l-53 32zM85 299v42h43v-42h-43zM85 192v43h43v-43h-43zM85 85v43h43v-43h-43zM392 427q15 -3 25 -15t10 -27v-1v-341q0 -18 -12.5 -30.5t-30.5 -12.5h-64v-43l-53 32l-54 -32v470h171h4h4zM320 85v43h-43v-43h43zM320 192v43h-43v-43h43zM320 299v42
h-43v-42h43zM43 427h149v-43h-149v-384q-18 0 -30.5 12.5t-12.5 30.5v341q0 18 12.5 30.5t30.5 12.5z" />
    <glyph glyph-name="snapshot_rollback" unicode="snapshot_rollback" horiz-adv-x="427" 
d="M43 405h85v-42h-85v-86h-43v86q0 17 12.5 29.5t30.5 12.5zM299 405h85q18 0 30.5 -12.5t12.5 -29.5v-86h-43v86h-85v42zM299 -21v42h85v86h43v-86q0 -17 -12.5 -29.5t-30.5 -12.5h-85zM43 21h85v-42h-85q-18 0 -30.5 12.5t-12.5 29.5v86h43v-86zM221 245q41 0 74 -24
t46 -62l-30 -10q-9 29 -34 47t-56 18q-43 0 -72 -33l43 -42h-107v106l43 -41q38 41 93 41z" />
    <glyph glyph-name="software" unicode="software" horiz-adv-x="469" 
d="M277 57v-36h43v-42h-171v42h43v43h-149q-18 0 -30.5 12.5t-12.5 30.5v256q0 17 12.5 29.5t30.5 12.5h384q17 0 29.5 -12.5t12.5 -29.5v-94q-16 27 -42 45v49h-384v-256h176q23 -33 58 -50zM341 320q35 0 64.5 -17t46.5 -46.5t17 -64.5q0 -53 -37.5 -90.5t-90.5 -37.5
t-90.5 37.5t-37.5 90.5t37.5 90.5t90.5 37.5zM341.5 160q13.5 0 22.5 9.5t9 22.5t-9 22.5t-22.5 9.5t-23 -9.5t-9.5 -22.5t9.5 -22.5t23 -9.5z" />
    <glyph glyph-name="sphere" unicode="sphere" horiz-adv-x="480" 
d="M240 431q99 0 169.5 -70t70.5 -169.5t-70.5 -170t-169.5 -70.5t-169.5 70.5t-70.5 170t70.5 169.5t169.5 70zM376 111h56q13 31 15 64h-63q-2 -33 -8 -64zM104 271h-56q-13 -31 -15 -64h63q2 33 8 64zM343 271h-87v-64h96q-2 33 -9 64zM256 303h78q-8 23 -20 41
q-16 28 -36 42q-11 8 -22 11v-94zM166 344q-12 -18 -20 -41h78v94q-11 -3 -22 -11q-20 -14 -36 -42zM224 271h-87q-7 -31 -9 -64h96v64zM48 111h56q-6 31 -8 64h-63q2 -33 15 -64zM128 175q2 -33 9 -64h87v64h-96zM224 79h-78q8 -22 20 -41q16 -27 36 -42q11 -7 22 -10v93z
M314 38q12 19 20 41h-78v-93q11 3 22 10q20 15 36 42zM256 111h87q7 31 9 64h-96v-64zM384 207h63q-2 33 -15 64h-56q6 -31 8 -64zM415 303q-12 19 -28 35q-25 26 -57 41q23 -31 37 -76h48zM93 338q-16 -16 -28 -35h48q14 45 37 76q-32 -15 -57 -41zM65 79q12 -19 28 -35
q25 -25 57 -41q-23 32 -37 76h-48zM387 44q16 16 28 35h-48q-14 -44 -37 -76q32 16 57 41z" />
    <glyph glyph-name="state" unicode="state" horiz-adv-x="363" 
d="M128 320h107v-256h-107v256zM213 171v128h-64v-128h64zM320 427q18 0 30.5 -12.5t12.5 -30.5v-384q0 -18 -12.5 -30.5t-30.5 -12.5h-277q-18 0 -30.5 12.5t-12.5 30.5v384q0 18 12.5 30.5t30.5 12.5h277zM320 0v384h-277v-384h277z" />
    <glyph glyph-name="stateful_set" unicode="stateful_set" horiz-adv-x="490" 
d="M128 64h277v-43h-277q-18 0 -30.5 12.5t-12.5 30.5v0v277h43v-277zM43 -21h277v-43h-277q-18 0 -30.5 12.5t-12.5 30.5v0v277h43v-277zM330 261v0h1q23 0 44 5q19 4 35 13v-71q0 -11 -21 -21q-27 -11 -55 -11h-4h-1h-2q-29 0 -55 11q-22 10 -22 21v71q17 -9 36 -13
q21 -5 43 -5h1v0zM331 357h1h2q28 0 55 -11q21 -10 21 -21t-21 -21q-27 -11 -55 -11h-3v0h-1v0h-1h-2q-29 0 -55 11q-22 10 -22 21t22 21q27 11 55 11h3v0h1v0zM448 427q17 0 29.5 -12.5t12.5 -30.5v-235q0 -17 -12.5 -29.5t-29.5 -12.5h-235q-18 0 -30.5 12.5t-12.5 29.5
v235q0 18 12.5 30.5t30.5 12.5h235zM442 324v1q-2 33 -32 46q-35 18 -75 18h-5v0v0h-2h-2q-40 0 -76 -18q-29 -13 -32 -46v-117q3 -32 32 -46q36 -18 76 -18h4v0v0h1v0h2h2q40 0 75 18q30 14 32 46v116z" />
    <glyph glyph-name="storage_class" unicode="storage_class" horiz-adv-x="448" 
d="M427 363v-86h-427v86h427zM85 299v42h-42v-42h42zM397 132l51 -68l-51 -68q-12 -17 -32 -17h-2h-150q-9 0 -15 6t-6 15v128q0 9 6 15t15 6h150q21 0 34 -17zM213 192q-20 0 -36.5 -12t-23.5 -31h-153v86h427v-73q-26 29 -64 30h-150zM43 171h42v42h-42v-42zM149 107v-86
h-149v86h149zM43 43h42v42h-42v-42z" />
    <glyph glyph-name="subscription_management" unicode="subscription_management" horiz-adv-x="427" 
d="M85 43h107v-86l-53 32l-54 -32v86zM384 427q12 0 21.5 -6t15.5 -15.5t6 -21.5v-341q0 -18 -12.5 -30.5t-30.5 -12.5h-64v-43l-53 32l-54 -32v470h171zM256 341v-42h43v42h-43zM256 235v-43h43v43h-43zM256 128v-43h43v43h-43zM43 427h149v-43h-149v-384q-18 0 -30.5 12.5
t-12.5 30.5v341q0 18 12.5 30.5t30.5 12.5zM85 299v42h43v-42h-43zM85 192v43h43v-43h-43zM85 85v43h43v-43h-43z" />
    <glyph glyph-name="subscriptions_created" unicode="subscriptions_created" horiz-adv-x="427" 
d="M43 277v43h341v-43h-341zM86 362v43h256v-43h-256zM384 235q18 0 30.5 -12.5t12.5 -30.5v-171q0 -17 -12.5 -29.5t-30.5 -12.5h-341q-18 0 -30.5 12.5t-12.5 29.5v171q0 18 12.5 30.5t30.5 12.5h341zM177 21l143 142l-30 30l-113 -113l-40 40l-30 -30z" />
    <glyph glyph-name="symlink" unicode="symlink" horiz-adv-x="341" 
d="M213 405l128 -128v-256q0 -11 -5.5 -21t-15.5 -15.5t-21 -5.5h-256q-18 0 -30.5 12.5t-12.5 29.5v342q0 17 12.5 29.5t30.5 12.5h170zM192 33l85 79l-85 80v-45q-105 -15 -128 -126q43 58 128 58v-46zM192 256h118l-118 117v-117z" />
    <glyph glyph-name="system_group" unicode="system_group" horiz-adv-x="469" 
d="M341 427v-43h-298v-192h-43v192q0 18 12.5 30.5t30.5 12.5h298zM427 341q17 0 29.5 -12.5t12.5 -29.5v-214q0 -11 -5.5 -21t-15.5 -15.5t-21 -5.5h-118v-33h32v-31h-128v31h33v33h-118q-18 0 -30.5 12.5t-12.5 29.5v214q0 17 12.5 29.5t30.5 12.5h299zM427 85v214h-299
v-214h299z" />
    <glyph glyph-name="system_image" unicode="system_image" horiz-adv-x="320" 
d="M277 384l43 21v-384q0 -17 -12.5 -29.5t-30.5 -12.5h-234q-18 0 -30.5 12.5t-12.5 29.5v320q0 18 12.5 30.5t30.5 12.5h234zM43 320v-43h170v43h-170zM128 21v43h-43v-43h43zM128 149v-42h85v42h-85zM277 21v43h-128v-43h128zM277 107v42h-42v-42h42zM277 192v43h-106
v-43h106zM277 277v43h-42v-43h42z" />
    <glyph glyph-name="system_ok" unicode="system_ok" horiz-adv-x="469" 
d="M427 405q17 0 29.5 -12.5t12.5 -29.5v-256q0 -12 -5.5 -22t-15.5 -15.5t-21 -5.5h-150v-43h43v-42h-171v42h43v43h-149q-18 0 -30.5 12.5t-12.5 30.5v256q0 17 12.5 29.5t30.5 12.5h384zM208 156l155 155l-30 30l-125 -124l-71 71l-30 -30l101 -102v0z" />
    <glyph glyph-name="system_re_registered" unicode="system_re_registered" horiz-adv-x="469" 
d="M427 405q17 0 29.5 -12.5t12.5 -29.5v-256q0 -18 -12.5 -30.5t-29.5 -12.5h-150v-43h43v-42h-171v42h43v43h-149q-18 0 -30.5 12.5t-12.5 30.5v256q0 17 12.5 29.5t30.5 12.5h384zM427 256v107h-384v-107h106v64l86 -85l-86 -86v64h-106v-106h384v106h-150v43h150z" />
    <glyph glyph-name="system_warning" unicode="system_warning" horiz-adv-x="469" 
d="M427 405q17 0 29.5 -12.5t12.5 -29.5v-256q0 -18 -12.5 -30.5t-29.5 -12.5h-150v-43h43v-42h-171v42h43v43h-149q-18 0 -30.5 12.5t-12.5 30.5v256q0 17 12.5 29.5t30.5 12.5h384zM427 107v256h-384v-256h384zM214 128v43h42v-43h-42zM214 214v128h42v-128h-42z" />
    <glyph glyph-name="templates" unicode="templates" horiz-adv-x="384" 
d="M341 405q18 0 30.5 -12.5t12.5 -29.5v-342q0 -11 -5.5 -21t-15.5 -15.5t-22 -5.5h-298q-18 0 -30.5 12.5t-12.5 29.5v342q0 8 3.5 16t9 14t13.5 9t17 3h298zM341 166l-106 -59l106 -62v121zM192 132l107 60h-214zM43 363v-43h298v43h-298zM43 277v-42h170v42h-170z
M149 107l-106 62v-122zM192 83l-107 -62h214z" />
    <glyph glyph-name="terminal" unicode="terminal" horiz-adv-x="427" 
d="M384 341q18 0 30.5 -12.5t12.5 -29.5v-214q0 -11 -6 -21t-15.5 -15.5t-21.5 -5.5h-341q-18 0 -30.5 12.5t-12.5 29.5v214q0 17 12.5 29.5t30.5 12.5h341zM85 85l107 107l-107 107l-30 -30l77 -77l-77 -77zM363 85v43h-150v-43h150z" />
    <glyph glyph-name="timeout" unicode="timeout" horiz-adv-x="426" 
d="M123 337l-31 31q55 37 121 37q88 0 150.5 -62.5t62.5 -150.5q0 -67 -37 -121l-31 31q26 41 26 90q0 71 -50 120.5t-121 49.5q-49 0 -90 -25zM392 14l-28 -28l-30 30q-54 -37 -121 -37q-88 0 -150.5 62.5t-62.5 150.5q0 67 38 121l-31 30l28 27l27 -27l30 -30l100 -100v86
h32v-112l96 -57l-16 -27l-6 4zM303 47l-123 124l-112 111q-25 -41 -25 -90q0 -71 49.5 -120.5t120.5 -49.5q49 0 90 25z" />
    <glyph glyph-name="troubleshooting" unicode="troubleshooting" 
d="M491 213h21v-42h-44q-7 -76 -61 -130t-130 -61v-44h-42v44q-76 7 -130 61t-61 130h-44v42h44q7 76 61 130t130 61v44h42v-44q76 -7 130 -61t61 -130h23zM293 213h51q-6 25 -24 43t-43 24v-51q10 -6 16 -16zM344 171h-51q-6 -10 -16 -16v-51q25 6 43 24t24 43zM235 361
q-58 -7 -99.5 -48.5t-48.5 -99.5h48q7 38 34.5 65.5t65.5 34.5v48zM219 213q6 10 16 16v51q-25 -6 -43 -24t-24 -43h51zM235 155q-10 6 -16 16h-51q6 -25 24 -43t43 -24v51zM87 171q7 -58 48.5 -99.5t99.5 -48.5v48q-38 7 -65.5 34.5t-34.5 65.5h-48zM277 23q58 7 99.5 48.5
t48.5 99.5h-48q-7 -38 -34.5 -65.5t-65.5 -34.5v-48zM377 213h48q-7 58 -48.5 99.5t-99.5 48.5v-48q38 -7 65.5 -34.5t34.5 -65.5z" />
    <glyph glyph-name="trusted_organization" unicode="trusted_organization" horiz-adv-x="299" 
d="M299 256q0 -38 -17.5 -70t-47.5 -53l65 -112l-48 -3l-26 -39l-74 128h-0.5h-1.5h-1l-74 -128l-26 40l-48 2l65 112q-30 21 -47.5 53t-17.5 70q0 62 44 105.5t105.5 43.5t105.5 -43.5t44 -105.5zM43 256q0 -44 31 -75.5t75 -31.5t75.5 31.5t31.5 75.5t-31.5 75.5
t-75.5 31.5t-75 -31.5t-31 -75.5zM85 256q0 27 19 45.5t45.5 18.5t45 -18.5t18.5 -45.5t-18.5 -45.5t-45 -18.5t-45.5 18.5t-19 45.5z" />
    <glyph glyph-name="virtual_guest" unicode="virtual_guest" horiz-adv-x="469" 
d="M427 405q17 0 29.5 -12.5t12.5 -29.5v-256q0 -18 -12.5 -30.5t-29.5 -12.5h-150v-43h43v-42h-171v42h43v43h-149q-18 0 -30.5 12.5t-12.5 30.5v256q0 17 12.5 29.5t30.5 12.5h384zM427 107v256h-384v-256h384zM107 299q0 8 6 14.5t15 6.5h213q9 0 15.5 -6.5t6.5 -14.5
v-128q0 -9 -6.5 -15.5t-15.5 -6.5h-213q-9 0 -15 6.5t-6 15.5v128zM341 171v106h-213v-106h213z" />
    <glyph glyph-name="virtual_host_manager" unicode="virtual_host_manager" horiz-adv-x="426" 
d="M391 63q15 -2 25 -14t10 -28v-1.5v-1.5q-2 -17 -14 -28t-29 -11q-24 0 -36 21h-268q-12 -21 -36 -21h-7q-15 3 -25.5 14.5t-10.5 27.5q0 25 21 37v268q-21 13 -21 37q0 18 12.5 30.5t30.5 12.5q15 0 27 -10t15 -25l177 -32q12 24 38 24q18 0 30.5 -12.5t12.5 -30.5
q0 -20 -17 -33zM80 41q3 -5 4 -9h258l1 1l-41 23q-15 -14 -35 -14q-22 0 -37.5 15t-16.5 36v1.5v1.5q0 14 7 26l-26 31q-10 -3 -21 -3q-7 0 -14 2l-82 -105q2 -3 3 -6zM277 284l-35 -29q6 -15 6 -30q0 -41 -34 -63l21 -24q14 11 32 11q22 0 37.5 -15.5t15.5 -37.5v-2v-1
q-1 -5 -2 -9l45 -26q2 2 5 3l-62 217h-7q-12 0 -22 6zM83 349l51 -61q18 11 40 11q34 0 56 -26l33 27q-5 9 -5 18zM43 320v-256q9 0 17 -4l77 100q-38 21 -38 65q0 28 19 49l-48 56q-11 -10 -27 -10z" />
    <glyph glyph-name="virtual_space" unicode="virtual_space" horiz-adv-x="427" 
d="M213.5 405q88.5 0 151 -62.5t62.5 -150.5t-62.5 -150.5t-151 -62.5t-151 62.5t-62.5 150.5t62.5 150.5t151 62.5zM213.5 21q70.5 0 120.5 50t50 121t-50 121t-120.5 50t-120.5 -50t-50 -121t50 -121t120.5 -50zM182 288q0 13 9 22.5t22 9.5t22.5 -9.5t9.5 -22.5
q0 -8 -4 -15.5t-11.5 -12t-16 -4.5t-16 4.5t-11.5 12t-4 15.5zM182 96q0 13 9 22.5t22 9.5t22.5 -9.5t9.5 -22.5q0 -8 -4 -15.5t-11.5 -12t-16 -4.5t-16 4.5t-11.5 12t-4 15.5zM278 192q0 13 9 22.5t22 9.5t22.5 -9.5t9.5 -22.5t-9.5 -22.5t-22.5 -9.5t-22 9.5t-9 22.5z
M86 192q0 13 9 22.5t22 9.5t22.5 -9.5t9.5 -22.5t-9.5 -22.5t-22.5 -9.5t-22 9.5t-9 22.5zM192 192q0 9 6 15t15 6t15.5 -6t6.5 -15t-6.5 -15t-15.5 -6t-15 6t-6 15z" />
    <glyph glyph-name="volume_binding" unicode="volume_binding" horiz-adv-x="427" 
d="M85 43q0 -22 8 -43h-50q-18 0 -30.5 12.5t-12.5 30.5v341q0 18 12.5 30.5t30.5 12.5h213q18 0 30.5 -12.5t12.5 -30.5v-213h-86q-34 0 -63.5 -17.5t-47 -47t-17.5 -63.5zM256 405q-6 0 -11 -2.5t-7.5 -7.5t-2.5 -11q0 -9 6 -15t15 -6t15 6t6 15q0 6 -2.5 11t-7.5 7.5
t-11 2.5zM149 384q-44 0 -75 -31t-31 -76q0 -22 9 -42h55v-55q20 -9 43 -9q44 0 75 31t31 75t-31 75.5t-75 31.5h-1zM42.5 405q-8.5 0 -15 -6t-6.5 -15t6.5 -15t15.5 -6q5 0 10 2.5t8 7.5t3 11q0 9 -6.5 15t-15 6zM42.5 21q8.5 0 15 6.5t6.5 15t-6.5 15t-15 6.5t-15 -6.5
t-6.5 -15t6.5 -15t15 -6.5zM107 277.5q0 17.5 12.5 30t30 12.5t30 -12.5t12.5 -30t-12.5 -30t-30 -12.5t-30 12.5t-12.5 30zM235 21v43h85v-43h-85zM341 128q36 0 61 -25t25 -60.5t-25 -60.5t-61 -25h-42v43h42q18 0 30.5 12.5t12.5 30.5q0 11 -5.5 21t-15.5 15.5t-22 5.5
h-42v43h42zM256 0v-43h-43q-35 0 -60 25t-25 60.5t25 60.5t60 25h43v-43h-43q-17 0 -29.5 -12.5t-12.5 -30t12.5 -30t29.5 -12.5h43z" />
    <glyph glyph-name="volume" unicode="volume" horiz-adv-x="299" 
d="M256 405q18 0 30.5 -12.5t12.5 -29.5v-342q0 -17 -12.5 -29.5t-30.5 -12.5h-213q-18 0 -30.5 12.5t-12.5 29.5v342q0 17 12.5 29.5t30.5 12.5h213zM42.5 384q-8.5 0 -15 -6.5t-6.5 -15t6.5 -15t15 -6.5t15 6.5t6.5 15t-6.5 15t-15 6.5zM42.5 0q8.5 0 15 6.5t6.5 15
t-6.5 15t-15 6.5t-15 -6.5t-6.5 -15t6.5 -15t15 -6.5zM149 149q45 0 76 31.5t31 75.5t-31 75t-75.5 31t-75.5 -31t-31 -75q0 -22 9 -43h55v-55q20 -9 42 -9zM256 0q9 0 15 6.5t6 15t-6 15t-15 6.5t-15 -6.5t-6 -15t6 -15t15 -6.5zM256 341q9 0 15 6.5t6 15t-6 15t-15 6.5
t-15 -6.5t-6 -15t6 -15t15 -6.5zM107 256q0 18 12.5 30.5t30 12.5t30 -12.5t12.5 -30.5t-12.5 -30.5t-30 -12.5t-30 12.5t-12.5 30.5z" />
    <glyph glyph-name="workload" unicode="workload" horiz-adv-x="427" 
d="M43 320v-299h298v-42h-298q-18 0 -30.5 12.5t-12.5 29.5v299h43zM171 192v43h170v-43h-170zM171 128v43h170v-43h-170zM245 342l24 -43l-24 -43h-50l-24 43l24 43h50zM384 405q18 0 30.5 -12.5t12.5 -29.5v-256q0 -18 -12.5 -30.5t-30.5 -12.5h-256q-18 0 -30.5 12.5
t-12.5 30.5v256q0 17 12.5 29.5t30.5 12.5h256zM384 107v256h-256v-256h256z" />
    <glyph glyph-name="workloads" unicode="workloads" horiz-adv-x="427" 
d="M43 320v-299h298v-42h-298q-18 0 -30.5 12.5t-12.5 29.5v299h43zM171 192v43h170v-43h-170zM171 128v43h170v-43h-170zM245 342l24 -43l-24 -43h-50l-24 43l24 43h50zM384 405q18 0 30.5 -12.5t12.5 -29.5v-256q0 -18 -12.5 -30.5t-30.5 -12.5h-256q-18 0 -30.5 12.5
t-12.5 30.5v256q0 17 12.5 29.5t30.5 12.5h256zM384 107v256h-256v-256h256z" />
    <glyph glyph-name="wrench" unicode="wrench" 
d="M501 39q10 -9 10.5 -21.5t-8.5 -21.5l-51 -51q-9 -9 -21.5 -8.5t-21.5 10.5l-197 230q-32 -17 -68 -17q-60 0 -102 42t-42 102q0 21 6 42l83 -83q10 -10 23 -10t23 10l50 50q10 10 10 23t-10 23l-83 83q21 6 42 6q60 0 102 -42t42 -102q0 -36 -17 -68z" />
    <glyph glyph-name=".notdef" horiz-adv-x="187" 
d="M17 0v341h136v-341h-136zM34 17h102v307h-102v-307z" />
    <glyph glyph-name=".null" horiz-adv-x="0" 
 />
    <glyph glyph-name="nonmarkingreturn" horiz-adv-x="170" 
 />
    <glyph glyph-name="_" unicode="_" 
d="M0 0z" />
    <glyph glyph-name="a" unicode="a" 
d="M0 0z" />
    <glyph glyph-name="b" unicode="b" 
d="M0 0z" />
    <glyph glyph-name="c" unicode="c" 
d="M0 0z" />
    <glyph glyph-name="d" unicode="d" 
d="M0 0z" />
    <glyph glyph-name="e" unicode="e" 
d="M0 0z" />
    <glyph glyph-name="f" unicode="f" 
d="M0 0z" />
    <glyph glyph-name="g" unicode="g" 
d="M0 0z" />
    <glyph glyph-name="h" unicode="h" 
d="M0 0z" />
    <glyph glyph-name="i" unicode="i" 
d="M0 0z" />
    <glyph glyph-name="j" unicode="j" 
d="M0 0z" />
    <glyph glyph-name="k" unicode="k" 
d="M0 0z" />
    <glyph glyph-name="l" unicode="l" 
d="M0 0z" />
    <glyph glyph-name="m" unicode="m" 
d="M0 0z" />
    <glyph glyph-name="n" unicode="n" 
d="M0 0z" />
    <glyph glyph-name="o" unicode="o" 
d="M0 0z" />
    <glyph glyph-name="p" unicode="p" 
d="M0 0z" />
    <glyph glyph-name="q" unicode="q" 
d="M0 0z" />
    <glyph glyph-name="r" unicode="r" 
d="M0 0z" />
    <glyph glyph-name="s" unicode="s" 
d="M0 0z" />
    <glyph glyph-name="t" unicode="t" 
d="M0 0z" />
    <glyph glyph-name="u" unicode="u" 
d="M0 0z" />
    <glyph glyph-name="v" unicode="v" 
d="M0 0z" />
    <glyph glyph-name="w" unicode="w" 
d="M0 0z" />
    <glyph glyph-name="x" unicode="x" 
d="M0 0z" />
    <glyph glyph-name="y" unicode="y" 
d="M0 0z" />
    <glyph glyph-name="z" unicode="z" 
d="M0 0z" />
  </font>
</defs>
</svg>
