<svg xmlns="http://www.w3.org/2000/svg" viewBox="0 0 20 20"><path d="M17.663 9.972a8.934 8.934 0 0 0-.881-3.414l2.533-.939a9.094 9.094 0 0 0-.795-1.335l-1.237.458A8.984 8.984 0 0 0 9.988 1a9 9 0 0 0-9 9c0 .258.017.511.039.763l1.237-.458c.044.522.14 1.038.269 1.531L0 12.774a8.987 8.987 0 0 0 1.553 3.166l1.296-.48A8.958 8.958 0 0 0 9.988 19a9 9 0 0 0 9-9c0-.172-.02-.338-.03-.508l-1.295.48zm-2.971.509c0 .204-.011.405-.031.604l1.295-.48A5.999 5.999 0 0 1 9.988 16c-1.6 0-3.039-.641-4.114-1.662l-1.296.48a5.973 5.973 0 0 1-1.754-3.09l2.533-.939a6.037 6.037 0 0 1-.132-1.247c0-.115.011-.227.017-.34l-1.237.458A5.995 5.995 0 0 1 9.988 4c1.699 0 3.23.709 4.321 1.844l1.237-.458c.365.38.684.817.94 1.282l-2.534.938c.47.854.74 1.832.74 2.875z"></path></svg>
